<?xml version="1.0" encoding="utf-8"?>
<!-- Generator: Adobe Illustrator 26.4.1, SVG Export Plug-In . SVG Version: 6.00 Build 0)  -->
<svg version="1.1" id="Layer_1" xmlns="http://www.w3.org/2000/svg" xmlns:xlink="http://www.w3.org/1999/xlink" x="0px" y="0px"
	 viewBox="0 0 152.7 475.9" style="enable-background:new 0 0 152.7 475.9;" xml:space="preserve">
<style type="text/css">
	.st0{fill-rule:evenodd;clip-rule:evenodd;fill:#004F05;}
	.st1{fill-rule:evenodd;clip-rule:evenodd;fill:#05540D;}
	.st2{fill-rule:evenodd;clip-rule:evenodd;fill:#367838;}
	.st3{fill-rule:evenodd;clip-rule:evenodd;fill:#59915C;}
	.st4{fill-rule:evenodd;clip-rule:evenodd;fill:#73A673;}
	.st5{fill-rule:evenodd;clip-rule:evenodd;fill:#85B387;}
	.st6{fill-rule:evenodd;clip-rule:evenodd;fill:#96C296;}
	.st7{fill-rule:evenodd;clip-rule:evenodd;fill:#A6CCA6;}
	.st8{fill-rule:evenodd;clip-rule:evenodd;fill:#B0D4B0;}
	.st9{fill-rule:evenodd;clip-rule:evenodd;fill:#BADBB8;}
	.st10{fill-rule:evenodd;clip-rule:evenodd;fill:#C7E6C4;}
	.st11{fill-rule:evenodd;clip-rule:evenodd;fill:#CFE8C9;}
	.st12{fill-rule:evenodd;clip-rule:evenodd;fill:#BFDEB3;}
	.st13{fill-rule:evenodd;clip-rule:evenodd;fill:#ABC4A8;}
	.st14{fill-rule:evenodd;clip-rule:evenodd;fill:#D4E6CF;}
	.st15{fill-rule:evenodd;clip-rule:evenodd;fill:#ADC7AB;}
	.st16{fill-rule:evenodd;clip-rule:evenodd;fill:#ADC7AD;}
	.st17{fill-rule:evenodd;clip-rule:evenodd;fill:#D6E6CF;}
	.st18{fill-rule:evenodd;clip-rule:evenodd;fill:#B3C9B0;}
	.st19{fill-rule:evenodd;clip-rule:evenodd;fill:#D6E6D1;}
	.st20{fill-rule:evenodd;clip-rule:evenodd;fill:#B5CCB3;}
	.st21{fill-rule:evenodd;clip-rule:evenodd;fill:#D9E6D1;}
	.st22{fill-rule:evenodd;clip-rule:evenodd;fill:#C2DBB8;}
</style>
<g>
	<polygon class="st0" points="85.4,475.9 94.8,474.7 103.9,471.3 112.5,466.2 120.5,459.3 127.3,451.1 133.3,441.9 138,432 
		141.5,421.5 143.7,408 145.7,389.6 147.2,367.3 148.5,342.1 149.4,314.6 150.2,286.1 150.8,257.3 151.3,229.4 151.4,218.7 
		151.7,207.6 151.9,195.9 152.1,184 152.2,171.8 152.3,159.5 152.5,146.9 152.7,134.4 152.5,119.6 152.2,105.5 151.7,91.8 151.1,79 
		150.1,67 149,56.2 147.6,46.4 146.2,38.1 140.6,24 131.7,12.6 120.1,4.4 106.5,0.2 91.5,0.6 75.9,6.2 60.3,17.7 45.7,35.8 34.9,55 
		25.7,77.3 17.9,101.9 11.8,128.1 6.8,154.9 3.4,181.9 1,208.2 0,233.2 0,235.5 0.1,237.8 0.2,240.2 0.3,242.5 0.4,244.8 0.6,247 
		0.7,249.3 0.9,251.5 2.9,278.5 5.9,307.6 9.6,337.3 14.1,366.4 18.9,393.2 24.1,416.7 29.5,435.2 34.9,447.8 39.9,455.6 45,461.9 
		50.1,466.7 55.7,470.5 61.8,473 68.6,474.7 76.3,475.6 	"/>
	<polygon class="st1" points="85.4,468.4 94.5,467.2 103.4,463.9 111.5,458.8 119.2,452.3 125.9,444.2 131.6,435.2 136.2,425.5 
		139.5,415.3 141.7,402 143.5,384.2 144.9,362.4 146.2,337.7 147.1,310.9 147.9,283.1 148.3,255.1 148.9,227.9 149.2,208.2 
		149.5,187.3 149.9,165.3 150.2,142.9 150.2,120.4 150.2,98.2 149.8,76.7 149.2,56.6 148.9,53.9 148.5,51.3 148.2,48.9 147.9,46.6 
		147.4,44.3 147,42.1 146.5,40 146.2,38.1 140.6,24 131.7,12.6 120.1,4.4 106.5,0.2 91.5,0.6 75.9,6.2 60.3,17.7 45.7,35.8 
		38.5,48.1 31.8,61.9 25.9,76.8 20.7,92.8 16,109.4 12,126.8 8.5,144.4 5.8,162.3 4.7,174.3 4,186.3 3.5,197.8 3.3,209.1 3,219.9 
		3.1,230.3 3.5,240.1 4,249.4 6.1,275.7 9,304.1 12.6,333.1 16.9,361.5 21.5,387.7 26.5,410.6 31.6,428.7 36.8,440.9 41.6,448.6 
		46.5,454.7 51.5,459.4 56.8,463.1 62.7,465.6 69.3,467.3 76.7,468.1 	"/>
	<polygon class="st0" points="85.4,460.1 94.2,458.9 102.6,455.7 110.5,450.8 117.8,444.3 124.2,436.4 129.7,427.8 134,418.3 
		137.2,408.4 139.2,395.5 141,378.2 142.5,357 143.6,333.1 144.4,307 145.2,280 145.7,252.6 146.3,226.2 146.6,203.3 147,178.9 
		147.2,153.2 147.5,127.3 147.4,101.7 147.1,77 146.2,54 144.9,33.6 138.7,20.7 129.4,10.4 117.6,3.4 104.3,0 89.7,0.9 74.7,6.8 
		59.8,18.3 45.7,35.8 40.9,43.4 36.5,51.8 32.4,60.5 28.6,69.9 24.9,79.7 21.5,89.8 18.4,100.2 15.7,111.1 12.9,129.6 10.6,148.2 
		8.9,166.4 7.7,184.4 6.9,201.5 6.7,217.9 6.9,233.1 7.6,247.1 9.4,272.7 12.2,300.3 15.7,328.4 19.8,356.1 24.2,381.5 28.9,403.8 
		33.9,421.4 38.8,433.3 43.5,440.7 48.2,446.9 52.9,451.5 58.1,455.1 63.6,457.4 69.8,459 77,459.8 	"/>
	<polygon class="st2" points="85.4,458.2 93.8,457 102.1,453.8 109.7,448.9 116.9,442.5 123.2,434.8 128.6,426.1 132.8,416.7 
		136,407 138,394.2 139.7,376.9 141,355.9 142.3,332.2 142.9,306.3 143.7,279.5 144.2,252.5 144.7,226.2 145.1,203.7 145.5,179.4 
		145.7,154 146.1,128.3 146,102.9 145.6,78.5 144.7,55.7 143.6,35.4 137.3,22.5 128.2,12.3 116.8,5.3 103.7,2 89.3,2.9 74.7,8.9 
		60.1,20.1 46.4,37.4 41.7,44.9 37.3,53.2 33.2,61.9 29.5,71.3 25.9,80.9 22.6,91 19.6,101.3 16.9,112.1 14.1,130.5 11.9,148.8 
		10.2,167 9.1,184.8 8.3,201.7 8.1,218.1 8.3,233.2 9,247.1 10.9,272.4 13.6,299.7 16.9,327.6 21,355 25.2,380.3 29.9,402.4 
		34.8,419.9 39.7,431.6 44.2,438.9 48.8,444.9 53.5,449.5 58.5,453 64,455.4 70.2,457.1 77.2,457.9 	"/>
	<polygon class="st3" points="85.1,456 93.4,454.8 101.5,451.7 109.1,446.8 116,440.5 122.1,432.8 127.3,424.2 131.6,414.8 
		134.6,405.2 136.7,392.5 138.3,375.5 139.7,354.6 140.8,331.1 141.5,305.5 142.1,279 142.7,252.3 143.3,226.3 143.6,203.9 
		144.1,179.9 144.3,154.8 144.5,129.3 144.4,104 144.1,79.9 143.2,57.3 142,37.2 136,24.4 127.1,14.3 115.9,7.4 103.1,4.3 89.1,5.2 
		74.8,11 60.4,22.1 47.1,39.3 42.5,46.7 38.2,54.9 34.2,63.6 30.6,72.9 27.1,82.4 24,92.4 21.1,102.7 18.5,113.3 15.7,131.4 
		13.5,149.6 11.8,167.6 10.6,185.3 9.9,202.2 9.6,218.2 9.9,233.2 10.5,247 12.3,272 15,299.1 18.3,326.8 22.3,353.8 26.5,378.8 
		31.1,400.7 35.8,418.1 40.6,429.7 45.1,437 49.5,443 54,447.4 59,450.9 64.2,453.3 70.3,454.8 77.1,455.6 	"/>
	<polygon class="st4" points="84.9,453.5 92.9,452.4 100.8,449.2 108.1,444.3 114.9,438.1 120.8,430.6 126,422.1 130,412.8 
		133.1,403.3 135,390.7 136.7,373.9 138,353.3 139,330.1 139.7,304.8 140.4,278.5 140.9,252 141.5,226.3 141.8,204.2 142.1,180.5 
		142.4,155.6 142.7,130.5 142.6,105.5 142.1,81.5 141.4,59.2 140.2,39.3 134.3,26.7 125.7,16.8 114.8,9.9 102.3,6.7 88.8,7.6 
		74.9,13.3 61,24.3 48,41.4 43.5,48.8 39.3,56.8 35.4,65.5 31.9,74.5 28.5,83.9 25.4,93.8 22.6,104 20.1,114.5 17.4,132.5 
		15.2,150.4 13.6,168.1 12.4,185.6 11.7,202.3 11.4,218.2 11.5,233 12.2,246.7 14,271.5 16.6,298.4 19.8,325.7 23.8,352.5 
		27.9,377.2 32.4,398.9 37,415.9 41.6,427.5 45.8,434.7 50.2,440.6 54.6,445.1 59.3,448.6 64.5,450.9 70.4,452.4 77,453.1 	"/>
	<polygon class="st5" points="84.7,450.6 92.5,449.5 100,446.4 107.1,441.6 113.7,435.4 119.4,427.9 124.4,419.6 128.4,410.4 
		131.3,401 133.1,388.7 134.7,372 136,351.7 137,328.7 137.7,303.7 138.4,277.9 138.9,251.7 139.5,226.3 139.7,204.4 140,181 
		140.2,156.5 140.5,131.6 140.4,106.9 140,83.4 139.2,61.3 138.2,41.7 132.5,29.3 124.1,19.5 113.6,12.7 101.6,9.5 88.3,10.4 
		74.9,16.1 61.4,27 48.9,43.8 44.5,51.1 40.6,59.1 36.8,67.5 33.4,76.6 30,86 27,95.7 24.2,105.7 21.7,116.1 19.2,133.8 17.2,151.5 
		15.6,169 14.6,186.3 13.8,202.6 13.6,218.3 13.7,233 14.3,246.5 16.1,270.9 18.7,297.5 21.9,324.5 25.6,350.9 29.5,375.3 
		33.7,396.7 38.1,413.6 42.6,424.9 46.7,432 51,437.8 55.3,442.2 60,445.6 64.9,448 70.6,449.5 77.1,450.2 	"/>
	<polygon class="st6" points="84.4,447.3 91.9,446.2 99.2,443.2 105.9,438.5 112.3,432.4 117.8,425 122.6,416.8 126.5,407.8 
		129.3,398.5 131,386.2 132.5,369.9 133.7,349.9 134.7,327.3 135.4,302.7 136,277.2 136.4,251.5 137,226.5 137.3,205 137.7,181.9 
		137.9,157.7 138.1,133.3 138,108.9 137.7,85.6 137,64 136,44.7 130.5,32.5 122.4,22.8 112.2,16 100.7,12.9 88,13.8 75,19.4 
		62,30.1 49.9,46.6 45.7,53.8 41.9,61.6 38.2,69.9 35,78.8 31.8,88 28.9,97.6 26.2,107.5 24,117.8 21.4,135.2 19.4,152.7 
		17.9,169.9 16.9,187 16.3,203.2 16,218.7 16.1,233 16.7,246.4 18.4,270.3 20.9,296.5 23.9,323 27.5,349.1 31.3,373.1 35.5,394.2 
		39.8,410.8 44.1,422 48.1,428.9 52.1,434.7 56.2,439 60.6,442.4 65.5,444.7 71,446.2 77.1,447 	"/>
	<polygon class="st7" points="84.1,443.2 91.3,442.1 98.2,439.1 104.6,434.5 110.6,428.6 115.8,421.3 120.4,413.2 124,404.4 
		126.7,395.2 128.5,383.3 129.9,367.2 131,347.7 132.1,325.5 132.6,301.4 133.2,276.3 133.6,251.1 134.1,226.5 134.4,205.4 
		134.7,182.7 135,158.9 135.2,134.9 135.1,111.1 134.7,88.3 134.1,67 133.1,48.1 127.8,36.1 120.1,26.7 110.4,20.1 99.4,17 
		87.3,17.8 75,23.3 62.8,33.7 51.2,50 47.2,57 43.6,64.8 40.1,73 37,81.7 34,90.7 31.3,100.1 28.8,109.8 26.6,119.9 24.1,137 
		22.3,154.1 20.9,171 19.8,187.7 19.2,203.7 18.9,218.9 19.1,233 19.7,246 21.3,269.7 23.7,295.2 26.6,321.3 29.9,346.9 33.5,370.4 
		37.4,391.1 41.5,407.3 45.5,418.3 49.3,425.1 53.2,430.7 57.2,435.1 61.4,438.4 66,440.6 71.3,442.1 77.1,442.8 	"/>
	<polygon class="st8" points="83.5,438 90.1,436.9 96.6,434.1 102.7,429.6 108.4,423.8 113.3,416.7 117.6,408.9 120.8,400.2 
		123.4,391.3 125,379.6 126.5,363.9 127.5,344.8 128.5,323.1 129,299.5 129.6,275.2 130,250.5 130.5,226.5 130.7,205.9 131,183.8 
		131.2,160.7 131.4,137.3 131.3,114 131,91.7 130.4,70.9 129.4,52.5 124.4,40.8 117.4,31.5 108.3,25.1 98.1,22.2 86.8,23 75.2,28.4 
		63.8,38.7 53,54.5 49.2,61.3 45.8,68.8 42.6,76.9 39.7,85.3 36.9,94 34.3,103.3 31.9,112.8 29.8,122.6 27.5,139.3 25.8,156 
		24.4,172.5 23.5,188.7 22.9,204.3 22.8,219.1 22.9,232.9 23.4,245.7 24.9,268.8 27,293.7 29.7,319.1 33,344.1 36.3,367.2 40,387.2 
		43.7,403.2 47.6,413.8 51.2,420.5 54.8,425.9 58.5,430.2 62.4,433.4 66.7,435.6 71.6,437 77,437.7 	"/>
	<polygon class="st9" points="83,431 89,429.9 94.8,427.1 100.3,422.8 105.5,417.2 109.9,410.3 113.8,402.7 116.8,394.3 
		119.1,385.7 120.5,374.5 121.7,359.2 122.8,340.7 123.5,319.9 124.1,297.1 124.7,273.6 125,249.7 125.4,226.6 125.6,206.8 
		125.9,185.4 126,163 126.2,140.3 126.1,117.8 125.9,96.4 125.3,76.3 124.4,58.5 119.9,47.2 113.4,38.3 105.3,32.1 96,29.3 85.8,30 
		75.3,35.2 64.9,45.2 55.3,60.4 51.9,67 48.9,74.3 45.8,82 43.3,90.2 40.7,98.7 38.3,107.6 36.2,116.8 34.3,126.3 32.3,142.3 
		30.7,158.6 29.5,174.5 28.7,190.2 28,205.1 27.9,219.5 27.9,232.8 28.5,245.1 29.8,267.4 31.8,291.4 34.2,316.1 37.1,340.2 
		40.1,362.4 43.6,381.9 47,397.2 50.4,407.6 53.7,414.1 56.9,419.4 60.3,423.4 63.9,426.5 67.7,428.5 72.1,429.9 77.1,430.6 	"/>
	<polygon class="st10" points="81.9,419.7 86.9,418.7 91.8,416.2 96.4,412 100.7,406.7 104.3,400.2 107.5,393.1 110.1,385.2 
		112,377 113.2,366.4 114.2,352.1 115,334.6 115.8,314.8 116.2,293.4 116.7,271.1 117,248.6 117.4,226.9 117.5,208 117.7,188 
		117.8,166.8 118,145.5 117.9,124.3 117.7,103.9 117.1,85 116.5,68.1 112.8,57.4 107.4,49 100.6,43.2 92.8,40.5 84.3,41.1 
		75.7,46.1 66.9,55.4 58.9,69.8 56.1,76.1 53.5,83.1 51.1,90.3 48.9,98.1 46.7,106.1 44.8,114.5 43,123.2 41.5,132.1 39.8,147.4 
		38.5,162.6 37.4,177.7 36.8,192.4 36.2,206.6 36.1,220 36.1,232.6 36.5,244.2 37.7,265.2 39.3,287.9 41.4,311.1 43.8,333.9 
		46.4,355 49.2,373.3 52,387.9 54.9,397.7 57.6,403.7 60.3,408.8 63,412.6 66.1,415.5 69.3,417.4 73,418.7 77.1,419.4 	"/>
	<polygon class="st11" points="81.5,401 86,400.1 90.4,397.8 94.5,394.1 98.3,389.4 101.6,383.5 104.6,377 106.8,370 108.5,362.6 
		109.5,352.9 110.5,340.1 111.2,324.3 111.9,306.5 112.3,287.2 112.8,267.1 113,246.8 113.3,227.2 113.4,210.3 113.7,192.1 
		113.9,173.1 114,153.8 113.9,134.6 113.7,116.3 113.3,99.2 112.7,84.1 109.2,74.4 104.4,66.8 98.2,61.5 91.4,59.1 83.6,59.7 
		75.9,64.1 68,72.5 60.8,85.5 58.2,91.2 55.8,97.5 53.6,104.1 51.6,111.1 49.5,118.2 47.9,125.9 46.2,133.7 44.8,141.8 43.3,155.5 
		42.1,169.2 41.3,182.8 40.7,196.1 40.2,208.9 40.1,221.1 40.1,232.5 40.6,242.9 41.6,261.8 43.2,282.3 45,303.2 47.2,323.8 
		49.4,342.6 52,359.2 54.6,372.3 57.2,381.1 59.5,386.6 62,391.2 64.3,394.5 67.1,397.2 70,399 73.3,400.1 77,400.8 	"/>
	<polygon class="st12" points="81.3,402.5 85.6,401.6 89.9,399.1 93.9,395.2 97.6,390.3 100.9,384.1 103.7,377.4 105.8,370 
		107.5,362.3 108.5,352.3 109.4,338.7 110.1,322.2 110.8,303.6 111.1,283.3 111.5,262.4 111.9,241.2 112.2,220.6 112.3,202.9 
		112.5,183.9 112.7,164 112.8,143.9 112.7,123.9 112.4,104.7 112,86.9 111.4,70.9 108.2,60.9 103.5,52.8 97.5,47.3 90.8,44.8 
		83.3,45.5 75.8,50.1 68.2,59 61.1,72.6 58.6,78.6 56.4,85.1 54.3,91.9 52.4,99.2 50.4,106.7 48.9,114.7 47.3,122.7 46,131.2 
		44.4,145.6 43.3,159.9 42.4,174.1 41.8,188.1 41.4,201.4 41.1,214.2 41.1,226.1 41.6,237.1 42.6,256.9 44.1,278.3 45.8,300.2 
		48,321.6 50.2,341.3 52.6,358.7 55,372.3 57.6,381.5 60,387.2 62.3,392 64.7,395.6 67.4,398.5 70.2,400.2 73.3,401.6 77,402.2 	"/>
	<polygon class="st11" points="84.1,398.1 84.5,397.2 85,394.8 85.4,390.8 85.9,385.9 86.2,379.8 86.5,373 86.8,365.6 87,358 
		86.8,348.1 86.2,335.1 85.4,319.3 84.5,301.5 83.5,282.1 82.8,261.7 82.3,241 82.2,220.6 82.4,203 83.3,184.3 84.5,164.6 86,145 
		87.2,125.4 88.4,106.6 89.2,89 89.6,73.2 89.2,63.1 89,55 88.7,49.5 88.3,47.1 87.8,47.7 87.3,52.3 86.7,61.2 86.1,74.9 85.5,80.8 
		84.7,87.8 83.5,95.4 82.4,103.5 81,111.9 80,120.5 79.1,129.1 78.8,137.9 78.5,151.9 78.1,165.7 77.7,179 77.4,191.9 76.8,204.2 
		76.5,216.1 76.1,227.3 76.2,238.1 76.3,257.7 76.9,278.5 77.6,299.5 78.6,320 79.4,338.7 80.2,355.2 80.8,368.3 81.3,377.3 
		81.5,383 81.8,387.7 82.1,391.3 82.4,394.1 82.7,396 83.1,397.2 83.4,397.9 	"/>
	<polygon class="st13" points="62.8,224.7 65.9,224.2 68.6,224.4 70.8,224.8 72.6,225.7 73.9,226.7 74.8,227.9 75.3,229 75.6,230.1 
		75.2,231 74.3,232.2 73,233.4 71.2,234.5 68.7,235.1 65.9,235.6 62.7,235.5 59.1,234.9 55.2,233.9 51.8,233.1 48.8,232.5 46.3,232 
		44.2,231.5 42.7,231 41.7,230.6 41.5,230.1 41.9,229.4 43.4,228.9 45.6,228.2 48.5,227.5 51.8,226.7 55.4,226.1 59.1,225.4 	"/>
	<polygon class="st14" points="61.1,227.5 64,227 66.5,226.9 68.5,227.1 70.2,227.6 71.3,228.2 72.2,228.9 72.8,229.4 73,230.1 
		72.6,230.6 71.9,231.2 70.5,231.9 68.8,232.7 66.6,233.1 64,233.4 61,233.1 57.6,232.3 54,231.3 51,230.7 48.2,230.1 45.8,230 
		43.8,229.9 42.6,230 41.7,230 41.5,230.1 41.9,230 43.3,230 45.3,229.8 48,229.7 50.9,229.2 54.3,228.8 57.6,228.2 	"/>
	<polygon class="st13" points="63.3,239.3 66.4,238.7 69.1,239 71.2,239.4 73,240.3 74.1,241.2 75,242.4 75.6,243.4 75.8,244.6 
		75.4,245.5 74.7,246.7 73.2,247.8 71.5,248.9 69.2,249.6 66.5,250.2 63.2,250.1 59.8,249.6 56.1,248.5 52.7,247.7 49.7,247 
		47.3,246.6 45.2,245.9 43.7,245.5 42.8,245 42.6,244.6 43,244 44.5,243.4 46.6,242.8 49.4,242.1 52.6,241.3 56.2,240.5 59.8,239.9 
			"/>
	<polygon class="st14" points="61.7,242.2 64.5,241.5 66.9,241.4 68.9,241.5 70.6,242.1 71.7,242.7 72.6,243.3 73.1,243.9 
		73.3,244.6 73,245 72.2,245.8 70.8,246.5 69.3,247.3 67.1,247.7 64.6,247.8 61.5,247.6 58.3,246.8 54.8,245.8 51.8,245.1 
		49.1,244.6 46.9,244.5 45,244.3 43.7,244.5 42.8,244.5 42.6,244.6 43,244.5 44.4,244.5 46.3,244.3 49,244.2 51.9,243.8 55.2,243.4 
		58.4,242.9 	"/>
	<polygon class="st15" points="63.9,253.8 66.8,253.2 69.4,253.4 71.4,253.9 73.1,254.8 74.2,255.7 75.1,256.9 75.7,258 75.9,259.1 
		75.6,260 74.8,261.2 73.4,262.3 71.9,263.4 69.5,264.1 66.9,264.6 63.8,264.5 60.4,264.1 56.7,263.1 53.5,262.3 50.7,261.6 
		48.3,261 46.3,260.5 44.8,260 43.9,259.6 43.7,259.1 44.2,258.5 45.5,257.9 47.6,257.2 50.4,256.6 53.5,255.8 56.9,255 60.4,254.3 
			"/>
	<polygon class="st14" points="62.3,256.6 65,255.9 67.5,255.8 69.4,256 71,256.6 72.1,257.1 72.9,257.8 73.3,258.5 73.5,259.1 
		73.2,259.6 72.5,260.3 71.2,260.9 69.6,261.7 67.5,262.2 65,262.4 62.2,262 59.1,261.4 55.7,260.4 52.8,259.7 50.1,259.1 48,259 
		46.1,258.9 44.8,259 43.9,259 43.7,259.1 44.1,259 45.4,259 47.3,258.8 49.9,258.7 52.7,258.2 55.8,257.8 59.1,257.2 	"/>
	<polygon class="st15" points="64.3,268.2 67.3,267.7 69.7,267.9 71.7,268.4 73.4,269.3 74.5,270.2 75.4,271.5 75.9,272.6 
		76.1,273.6 75.8,274.5 75,275.6 73.7,276.7 72.1,278 69.8,278.7 67.3,279.3 64.2,279.2 60.9,278.6 57.4,277.5 54.4,276.7 
		51.6,276.1 49.3,275.5 47.3,274.9 46,274.5 45.1,274 44.8,273.6 45.3,272.9 46.6,272.4 48.7,271.7 51.3,271 54.3,270.2 57.6,269.6 
		61,268.9 	"/>
	<polygon class="st14" points="62.8,271.1 65.4,270.5 67.7,270.3 69.6,270.6 71.2,271.1 72.2,271.7 73,272.4 73.4,272.9 73.7,273.6 
		73.3,274 72.6,274.8 71.5,275.5 70.1,276.3 68,276.7 65.7,276.8 62.9,276.6 59.8,275.8 56.5,274.8 53.6,274.2 51,273.6 48.9,273.5 
		47.1,273.4 45.8,273.5 45.1,273.5 44.8,273.6 45.2,273.5 46.4,273.5 48.3,273.3 50.8,273.1 53.6,272.7 56.6,272.4 59.6,271.7 	"/>
	<polygon class="st16" points="64.9,282.8 67.7,282.3 70.1,282.4 72,283 73.7,283.9 74.8,284.8 75.6,286 76,287.2 76.2,288.3 
		75.9,289.2 75.2,290.3 74,291.4 72.4,292.5 70.3,293.2 67.8,293.8 64.9,293.7 61.7,293.1 58.2,292 55.2,291.2 52.5,290.5 
		50.3,290.1 48.4,289.5 47.1,289.1 46.3,288.6 46.1,288.3 46.4,287.6 47.8,286.9 49.7,286.3 52.4,285.6 55.2,284.8 58.4,284.1 
		61.7,283.5 	"/>
	<polygon class="st17" points="63.6,285.7 66,285 68.3,284.9 70.1,285 71.5,285.6 72.5,286.1 73.3,286.8 73.8,287.4 74,288.1 
		73.7,288.5 73,289.3 71.9,290 70.4,290.7 68.4,291.2 66,291.3 63.3,291.1 60.4,290.3 57.3,289.3 54.5,288.6 52,288.1 50,287.9 
		48.3,287.8 47.1,287.9 46.3,287.9 46.1,288.1 46.4,287.9 47.6,287.9 49.4,287.8 51.8,287.7 54.5,287.3 57.5,286.9 60.5,286.4 	"/>
	<polygon class="st16" points="65.4,297.2 68,296.8 70.4,296.9 72.3,297.5 73.9,298.4 75,299.4 75.8,300.5 76.2,301.6 76.5,302.7 
		76.1,303.6 75.4,304.9 74.2,306 72.8,307.1 70.6,307.8 68.3,308.2 65.5,308.1 62.3,307.6 59.1,306.5 56.2,305.8 53.5,305.1 
		51.3,304.5 49.4,304 48.2,303.5 47.3,303.1 47.1,302.7 47.4,302.1 48.8,301.5 50.6,300.8 53.1,300.2 55.9,299.4 59.1,298.6 
		62.2,297.9 	"/>
	<polygon class="st17" points="64,300.2 66.5,299.5 68.6,299.4 70.4,299.5 71.9,300 72.9,300.6 73.5,301.4 74,302.1 74.2,302.7 
		73.9,303.2 73.3,303.9 72.2,304.5 70.7,305.3 68.8,305.6 66.6,305.9 64,305.5 61.1,304.9 58,303.9 55.3,303.2 52.9,302.7 
		50.9,302.6 49.2,302.5 48,302.5 47.3,302.6 47.1,302.7 47.4,302.6 48.7,302.5 50.3,302.3 52.7,302.2 55.3,301.7 58.2,301.4 
		61.1,300.8 	"/>
	<polygon class="st16" points="65.9,311.9 68.5,311.4 70.7,311.6 72.5,312 74.1,312.9 75.1,313.8 75.9,315.1 76.3,316.1 76.6,317.2 
		76.2,318.1 75.6,319.3 74.4,320.4 73,321.6 71,322.2 68.6,322.7 65.9,322.6 63,322 59.8,321 56.9,320.3 54.4,319.7 52.4,319.1 
		50.6,318.5 49.3,318.1 48.5,317.6 48.3,317.2 48.7,316.6 49.9,316.1 51.8,315.4 54.1,314.7 56.8,313.9 59.9,313.2 62.9,312.5 	"/>
	<polygon class="st17" points="64.6,314.6 66.9,313.9 69.1,313.8 70.7,314.1 72.2,314.6 73.2,315.2 73.9,316 74.3,316.5 74.5,317.2 
		74.2,317.6 73.7,318.4 72.5,319.1 71.1,319.9 69.2,320.3 67,320.4 64.5,320.2 61.8,319.4 58.7,318.4 56.2,317.8 53.9,317.2 
		52,317.1 50.3,317 49.2,317.1 48.5,317.1 48.3,317.2 48.7,317.1 49.8,317.1 51.5,316.9 53.7,316.7 56.2,316.3 59,315.8 61.8,315.3 
			"/>
	<polygon class="st18" points="66.5,326.4 68.9,325.8 71.2,326 73,326.5 74.4,327.4 75.4,328.3 76.1,329.5 76.6,330.6 76.8,331.8 
		76.5,332.7 75.9,333.8 74.8,334.9 73.3,336 71.3,336.7 69.1,337.3 66.5,337.1 63.6,336.7 60.4,335.7 57.7,334.9 55.4,334.2 
		53.4,333.7 51.7,333.1 50.4,332.7 49.8,332.2 49.5,331.8 49.9,331.1 51.1,330.5 52.8,329.9 55.2,329.2 57.7,328.4 60.6,327.6 
		63.6,326.9 	"/>
	<polygon class="st19" points="65.2,329.2 67.5,328.5 69.5,328.4 71.2,328.6 72.5,329.2 73.5,329.7 74.2,330.5 74.5,331.1 
		74.8,331.8 74.4,332.2 73.9,332.9 72.9,333.6 71.5,334.3 69.7,334.8 67.6,335 65.1,334.7 62.4,334 59.5,333 57.1,332.3 54.8,331.8 
		53,331.7 51.5,331.5 50.4,331.7 49.7,331.7 49.5,331.8 49.9,331.7 50.9,331.7 52.6,331.4 54.7,331.3 57.1,330.9 59.8,330.4 
		62.4,329.9 	"/>
	<polygon class="st18" points="68.8,340.8 71.2,340.3 73.3,340.5 75,341.1 76.5,342 77.5,343 78.1,344.1 78.5,345.2 78.7,346.3 
		78.4,347.2 77.8,348.4 76.7,349.5 75.3,350.6 73.4,351.4 71.3,351.9 68.7,351.8 65.9,351.3 62.9,350.1 60.3,349.4 58,348.7 
		56.1,348.1 54.4,347.6 53.1,347.1 52.5,346.7 52.2,346.3 52.6,345.7 53.8,345.1 55.5,344.4 57.8,343.8 60.3,343 63.1,342.2 
		65.9,341.5 	"/>
	<polygon class="st19" points="67.5,343.8 69.7,343.1 71.6,343 73.2,343.2 74.5,343.8 75.3,344.3 76,345 76.3,345.6 76.6,346.2 
		76.2,346.7 75.7,347.5 74.7,348.1 73.4,348.9 71.7,349.4 69.8,349.5 67.5,349.2 64.9,348.5 62.1,347.5 59.8,346.8 57.5,346.2 
		55.7,346.1 54.1,346 53.1,346.1 52.4,346.1 52.2,346.2 52.6,346.1 53.6,346.1 55.2,345.9 57.3,345.8 59.5,345.3 62.2,345 
		64.8,344.4 	"/>
	<polygon class="st18" points="71.1,355.3 73.4,354.9 75.4,355.1 77,355.6 78.4,356.5 79.4,357.4 80,358.7 80.4,359.8 80.6,360.9 
		80.3,361.8 79.7,362.9 78.7,364 77.4,365.2 75.6,365.8 73.4,366.4 71.1,366.3 68.4,365.7 65.5,364.6 62.9,363.8 60.6,363.1 
		58.9,362.6 57.2,362 56.2,361.7 55.4,361.2 55.3,360.9 55.6,360.2 56.6,359.6 58.3,358.9 60.4,358.2 62.8,357.4 65.6,356.6 
		68.3,356 	"/>
	<polygon class="st19" points="69.7,358.3 71.9,357.7 73.8,357.5 75.3,357.7 76.6,358.2 77.5,358.8 78.1,359.4 78.5,360 78.7,360.7 
		78.4,361.1 77.8,361.9 76.9,362.6 75.7,363.4 74,363.8 72.1,363.9 69.7,363.7 67.3,362.9 64.6,361.9 62.3,361.2 60.2,360.7 
		58.5,360.6 57.1,360.5 56.1,360.6 55.4,360.6 55.3,360.7 55.6,360.6 56.6,360.6 58.1,360.5 60.1,360.3 62.2,359.9 64.7,359.6 
		67.1,359 	"/>
	<polygon class="st20" points="73.3,369.9 75.6,369.4 77.5,369.5 79,370.1 80.4,371 81.3,371.9 81.9,373.1 82.3,374.2 82.5,375.4 
		82.2,376.3 81.6,377.5 80.6,378.6 79.4,379.7 77.6,380.4 75.6,380.9 73.2,380.7 70.6,380.2 67.8,379.1 65.4,378.3 63.2,377.6 
		61.5,377.2 60.1,376.6 59,376.1 58.3,375.7 58.2,375.4 58.5,374.7 59.5,374.1 61.1,373.5 63.2,372.8 65.5,372 68,371.2 70.6,370.5 
			"/>
	<polygon class="st19" points="72.1,372.8 74.2,372.1 76,372 77.5,372.1 78.7,372.7 79.5,373.2 80.2,373.9 80.4,374.5 80.6,375.1 
		80.4,375.6 79.8,376.4 78.9,377.2 77.7,377.9 76,378.4 74.2,378.5 72.1,378.2 69.7,377.4 67.1,376.4 64.9,375.8 62.9,375.4 
		61.3,375.3 60,375.1 59,375.1 58.3,375.1 58.2,375.1 58.4,375 59.4,375 60.9,374.9 62.8,374.8 64.8,374.4 67.3,374 69.6,373.5 	"/>
	<polygon class="st20" points="75.6,384.6 77.7,384 79.6,384.2 81,384.7 82.3,385.6 83.2,386.5 83.9,387.7 84.2,388.7 84.4,389.8 
		84.1,390.7 83.5,392 82.6,393.1 81.4,394.2 79.7,394.9 77.8,395.3 75.4,395.2 73,394.6 70.3,393.6 68,393 65.9,392.3 64.2,391.7 
		62.8,391.2 61.7,390.7 61,390.3 60.9,389.8 61.2,389.3 62.2,388.7 63.7,388 65.7,387.4 67.9,386.6 70.4,385.8 73,385.1 	"/>
	<polygon class="st21" points="74.3,387.2 76.3,386.6 78.1,386.5 79.5,386.7 80.6,387.2 81.4,387.8 82.1,388.6 82.3,389.1 
		82.5,389.8 82.3,390.3 81.7,391.1 80.8,391.7 79.7,392.5 78.1,393 76.3,393.1 74.3,392.8 72.1,392.1 69.6,391.1 67.5,390.4 
		65.5,389.8 63.9,389.7 62.6,389.6 61.7,389.7 61,389.7 60.9,389.8 61.1,389.7 62.1,389.7 63.4,389.5 65.4,389.4 67.4,388.9 
		69.7,388.5 72,387.9 	"/>
	<polygon class="st13" points="62.8,208.9 65.8,208.5 68.4,208.6 70.5,209.1 72.3,210 73.5,211.1 74.4,212.2 75,213.3 75.2,214.4 
		74.9,215.3 74.1,216.5 72.8,217.7 71,218.8 68.6,219.5 65.9,219.9 62.7,219.8 59.2,219.2 55.5,218.2 52.2,217.4 49.3,216.8 
		47,216.3 44.8,215.8 43.4,215.3 42.5,214.9 42.3,214.4 42.7,213.7 44.2,213.2 46.3,212.5 49.1,211.8 52.1,211.1 55.6,210.3 
		59.2,209.6 	"/>
	<polygon class="st14" points="61.3,211.8 64,211.2 66.5,211.1 68.4,211.3 70,211.8 71.1,212.4 72,213.1 72.4,213.7 72.6,214.4 
		72.3,214.9 71.5,215.5 70.3,216.2 68.7,217 66.5,217.4 64,217.7 61.1,217.4 58,216.7 54.5,215.6 51.5,215 48.8,214.4 46.5,214.3 
		44.6,214.2 43.4,214.3 42.5,214.3 42.3,214.4 42.6,214.3 43.9,214.3 45.8,214.1 48.5,214 51.5,213.5 54.7,213.1 58,212.5 	"/>
	<polygon class="st13" points="62.8,193.2 65.7,192.8 68.3,192.9 70.3,193.5 72.1,194.4 73.2,195.2 74.1,196.5 74.5,197.6 
		74.8,198.7 74.4,199.6 73.7,200.9 72.3,202 70.6,203.1 68.4,203.8 65.8,204.2 62.8,204.1 59.4,203.5 55.8,202.5 52.6,201.7 
		49.8,201.1 47.4,200.6 45.4,200.1 44.1,199.6 43.2,199.2 42.9,198.7 43.4,198.1 44.7,197.5 46.7,196.8 49.5,196.1 52.6,195.4 
		55.9,194.6 59.3,193.9 	"/>
	<polygon class="st14" points="61.3,196.1 64,195.5 66.4,195.4 68.3,195.5 69.8,196 70.8,196.6 71.6,197.4 72.1,198.1 72.3,198.7 
		72,199.2 71.3,199.8 70.1,200.5 68.6,201.3 66.5,201.7 64.1,202 61.3,201.6 58.2,201 54.9,200 52,199.3 49.3,198.7 47.2,198.6 
		45.3,198.5 44.1,198.6 43.2,198.6 42.9,198.7 43.3,198.6 44.6,198.6 46.5,198.4 49.1,198.3 51.9,197.8 55,197.4 58.2,196.8 	"/>
	<polygon class="st13" points="62.8,177.5 65.6,177.1 67.9,177.2 69.8,177.8 71.5,178.7 72.6,179.6 73.5,180.8 74,181.9 74.2,183 
		73.9,183.9 73.2,185 71.9,186.2 70.3,187.3 68.2,188.1 65.7,188.5 62.8,188.4 59.5,187.9 56.1,186.8 53,186.1 50.3,185.4 
		48.1,184.9 46.2,184.3 45,183.8 44.1,183.4 43.8,183 44.2,182.4 45.5,181.8 47.4,181.1 50.1,180.5 52.9,179.7 56.2,178.9 
		59.4,178.2 	"/>
	<polygon class="st14" points="61.3,180.5 63.9,179.8 66.1,179.7 67.9,179.8 69.5,180.3 70.5,180.9 71.3,181.7 71.7,182.4 72,183 
		71.6,183.5 71,184.2 69.7,184.8 68.3,185.6 66.3,186.1 64,186.3 61.3,185.9 58.3,185.3 55,184.3 52.4,183.6 49.8,183 47.8,182.9 
		46.1,182.8 44.8,182.9 44.1,182.9 43.8,183 44.2,182.9 45.4,182.9 47.3,182.7 49.7,182.6 52.4,182.1 55.3,181.7 58.3,181.1 	"/>
	<polygon class="st13" points="62.8,161.8 65.5,161.4 67.8,161.5 69.7,162.1 71.3,163 72.4,163.9 73.2,165.1 73.7,166.2 73.9,167.3 
		73.5,168.2 72.9,169.4 71.6,170.5 70.2,171.6 68,172.4 65.7,172.8 62.9,172.7 59.8,172.2 56.5,171.2 53.6,170.4 50.9,169.7 
		48.9,169.2 47,168.6 45.7,168.1 45,167.7 44.7,167.3 45.1,166.7 46.4,166.1 48.2,165.4 50.8,164.8 53.5,164 56.6,163.2 59.6,162.5 
			"/>
	<polygon class="st14" points="61.4,164.8 63.9,164.1 66,164 67.8,164.1 69.3,164.6 70.3,165.2 71,166 71.4,166.7 71.6,167.3 
		71.3,167.8 70.7,168.5 69.6,169.1 68.2,169.9 66.3,170.4 64,170.6 61.4,170.3 58.5,169.6 55.5,168.5 52.9,167.8 50.6,167.3 
		48.5,167.2 46.9,167.1 45.6,167.1 45,167.2 44.7,167.3 45.1,167.2 46.2,167.1 47.9,166.9 50.2,166.8 52.7,166.3 55.6,166 
		58.5,165.4 	"/>
	<polygon class="st15" points="62.8,146.2 65.4,145.7 67.7,145.8 69.5,146.4 71,147.3 72,148.2 72.8,149.4 73.1,150.5 73.3,151.6 
		73,152.5 72.3,153.7 71.2,154.8 69.7,155.9 67.7,156.7 65.5,157.1 62.8,157 59.9,156.5 56.7,155.3 53.9,154.6 51.5,153.9 
		49.4,153.4 47.8,152.9 46.5,152.4 45.7,152 45.5,151.6 45.8,151 47.1,150.4 48.9,149.7 51.2,149.1 53.8,148.3 56.8,147.5 
		59.8,146.8 	"/>
	<polygon class="st14" points="61.7,149.1 64,148.4 66,148.3 67.7,148.4 69.1,149 70.1,149.5 70.7,150.2 71.1,150.8 71.3,151.4 
		71,151.9 70.4,152.7 69.3,153.3 67.9,154.1 66,154.6 63.9,154.7 61.3,154.4 58.6,153.7 55.7,152.7 53.2,152 51,151.5 49.1,151.4 
		47.5,151.3 46.4,151.4 45.7,151.4 45.5,151.4 45.8,151.3 47,151.3 48.7,151.2 50.9,151.1 53.4,150.6 56.1,150.3 58.9,149.7 	"/>
	<polygon class="st15" points="65,130.5 67.5,130 69.6,130.1 71.3,130.7 72.8,131.6 73.8,132.5 74.4,133.7 74.9,134.8 75.1,136 
		74.8,136.9 74.2,138 73.1,139.1 71.6,140.2 69.7,140.9 67.5,141.4 64.9,141.3 62.1,140.8 59.1,139.7 56.5,138.9 54.1,138.2 
		52.2,137.7 50.6,137.2 49.4,136.7 48.8,136.3 48.5,136 48.9,135.3 50,134.6 51.7,133.9 53.9,133.3 56.4,132.5 59.3,131.8 
		62.1,131.1 	"/>
	<polygon class="st14" points="63.7,133.4 65.9,132.7 67.9,132.6 69.5,132.7 70.8,133.3 71.7,133.8 72.4,134.5 72.8,135.1 73,135.7 
		72.6,136.2 72.1,137 71.1,137.6 69.8,138.4 68.2,138.9 66.1,139 63.8,138.8 61.1,138 58.3,137 55.9,136.3 53.8,135.7 52,135.6 
		50.4,135.5 49.4,135.6 48.7,135.6 48.5,135.7 48.9,135.6 49.9,135.6 51.5,135.5 53.6,135.4 55.8,134.9 58.4,134.6 61,134.1 	"/>
	<polygon class="st15" points="67.1,114.7 69.4,114.2 71.4,114.4 73,115 74.3,115.9 75.3,116.8 76,118 76.3,119.1 76.6,120.3 
		76.2,121.2 75.7,122.3 74.7,123.4 73.3,124.5 71.5,125.2 69.4,125.8 67,125.6 64.3,125.1 61.4,124 59,123.2 56.7,122.5 54.9,121.9 
		53.4,121.4 52.4,121 51.6,120.6 51.5,120.3 51.8,119.6 52.8,118.9 54.5,118.2 56.6,117.6 59,116.8 61.7,116 64.3,115.3 	"/>
	<polygon class="st14" points="65.9,117.7 68,117 70,116.9 71.4,117 72.6,117.6 73.5,118.1 74.2,118.8 74.5,119.4 74.8,120 
		74.4,120.5 73.9,121.3 73,121.9 71.7,122.7 70.1,123.2 68.2,123.3 65.9,123.1 63.6,122.3 60.9,121.3 58.5,120.6 56.4,120 
		54.7,119.9 53.2,119.8 52.2,119.9 51.6,119.9 51.5,120 51.8,119.9 52.8,119.9 54.3,119.8 56.3,119.7 58.4,119.3 60.9,118.9 
		63.3,118.4 	"/>
	<polygon class="st15" points="69.4,99 71.5,98.4 73.4,98.6 75,99.2 76.2,100.1 77.1,101.1 77.8,102.3 78.1,103.5 78.4,104.6 
		78,105.5 77.5,106.6 76.5,107.7 75.2,108.8 73.5,109.5 71.5,110.1 69.3,110 66.8,109.4 64,108.3 61.7,107.5 59.5,106.8 57.7,106.3 
		56.3,105.7 55.2,105.4 54.5,104.9 54.4,104.6 54.7,103.9 55.7,103.2 57.3,102.6 59.3,101.9 61.5,101.1 64.1,100.3 66.7,99.6 	"/>
	<polygon class="st14" points="68.2,102 70.2,101.3 72,101.2 73.3,101.3 74.5,101.9 75.3,102.4 76,103.1 76.2,103.7 76.5,104.3 
		76.2,104.8 75.7,105.6 74.8,106.3 73.7,107 72,107.5 70.2,107.6 68.2,107.4 65.8,106.6 63.3,105.6 61.1,104.9 59.1,104.3 
		57.5,104.2 56.2,104.1 55.2,104.2 54.5,104.2 54.4,104.3 54.6,104.2 55.6,104.2 57.1,104.1 59,104 61,103.6 63.3,103.2 65.7,102.7 
			"/>
	<polygon class="st15" points="71.4,83.3 73.5,82.7 75.3,82.9 76.8,83.5 78,84.4 78.8,85.3 79.5,86.5 79.7,87.6 79.9,88.9 
		79.7,89.8 79.1,90.9 78.2,92 77,93.1 75.3,93.8 73.5,94.4 71.4,94.3 69.1,93.7 66.5,92.6 64.2,91.8 62.2,91.1 60.5,90.6 59.1,90 
		58.1,89.7 57.4,89.2 57.3,88.9 57.5,88.2 58.5,87.5 60,86.9 62,86.2 64.1,85.4 66.5,84.6 68.9,83.9 	"/>
	<polygon class="st14" points="70.4,86.3 72.3,85.6 73.9,85.5 75.2,85.6 76.3,86.2 77,86.8 77.7,87.4 77.9,88 78.1,88.7 77.9,89.1 
		77.5,89.8 76.6,90.4 75.4,91.2 74,91.7 72.3,91.9 70.3,91.7 68,90.9 65.6,89.9 63.6,89.2 61.7,88.7 60.2,88.5 58.9,88.4 58,88.5 
		57.4,88.5 57.3,88.7 57.5,88.5 58.4,88.5 59.8,88.4 61.7,88.3 63.6,87.9 65.8,87.5 68,87 	"/>
	<polygon class="st15" points="76.8,67.6 78.8,67 80.5,67.2 81.8,67.7 83,68.6 83.7,69.5 84.4,70.7 84.6,71.8 84.9,73 84.6,73.9 
		84.1,75.1 83.2,76.2 82.2,77.3 80.6,78 78.8,78.6 76.8,78.5 74.5,78 72.1,76.9 70.1,76.1 68.2,75.4 66.6,74.9 65.2,74.3 64.3,73.9 
		63.7,73.4 63.6,73 63.8,72.3 64.7,71.7 66,71.1 67.9,70.5 69.8,69.7 72.2,68.9 74.4,68.3 	"/>
	<polygon class="st17" points="75.8,70.5 77.6,69.8 79.1,69.7 80.5,69.9 81.5,70.5 82.2,71.1 82.7,71.7 83,72.3 83.2,73 83,73.4 
		82.5,74.1 81.6,74.8 80.6,75.5 79.3,76 77.6,76.2 75.7,76 73.7,75.2 71.4,74.2 69.4,73.5 67.6,73 66.3,72.9 65,72.7 64.2,72.9 
		63.7,72.9 63.6,73 63.8,72.9 64.7,72.9 65.9,72.6 67.6,72.5 69.4,72.1 71.5,71.7 73.7,71.2 	"/>
	<polygon class="st18" points="82.2,51.9 84,51.3 85.5,51.6 86.9,52 87.9,52.9 88.6,53.8 89.2,55 89.5,56.2 89.7,57.3 89.5,58.2 
		89,59.4 88.1,60.5 87.1,61.6 85.6,62.3 84.1,62.9 82.1,62.8 80,62.3 77.7,61.2 75.8,60.4 74,59.7 72.5,59.2 71.3,58.6 70.4,58.2 
		69.8,57.7 69.7,57.3 70,56.6 70.8,56 72.1,55.4 73.8,54.7 75.7,53.9 77.8,53.2 79.9,52.6 	"/>
	<polygon class="st19" points="81.3,54.8 83,54.1 84.4,54 85.5,54.2 86.5,54.8 87.2,55.4 87.8,56 88,56.6 88.2,57.3 88,57.7 
		87.6,58.4 86.8,59.1 85.8,59.9 84.4,60.3 83,60.5 81.2,60.3 79.3,59.5 77.1,58.5 75.2,57.8 73.5,57.3 72.3,57.2 71.1,57 70.3,57.2 
		69.8,57.2 69.7,57.3 70,57.2 70.7,57.2 72,56.9 73.5,56.8 75.2,56.4 77.2,56 79.3,55.5 	"/>
	<polygon class="st15" points="95.6,56.7 96.7,56.7 97.9,57 98.8,57.5 99.8,58.3 100.4,59 101.1,60 101.5,61 101.7,62.1 101.5,63 
		101.1,64 100.4,64.9 99.8,65.7 98.8,66.2 97.9,66.8 96.7,67 95.6,67.2 94.3,67 93.3,66.8 92.1,66.2 91.4,65.7 90.6,64.9 90,64 
		89.6,63 89.6,62.1 89.6,61 90,60 90.6,59 91.4,58.3 92.1,57.5 93.3,57 94.3,56.7 	"/>
	<polygon class="st22" points="95.6,59.5 96.6,59.6 97.6,60.3 98.2,61.1 98.5,62.1 98.2,63 97.6,63.8 96.6,64.3 95.6,64.6 
		94.4,64.3 93.5,63.8 92.9,63 92.7,62.1 92.9,61.1 93.5,60.3 94.4,59.6 	"/>
	<polygon class="st15" points="91.8,397.4 92.9,397.2 94.1,397 95,396.4 96,395.9 96.6,395.1 97.3,394.3 97.6,393.3 97.9,392.4 
		97.6,391.4 97.3,390.5 96.7,389.6 96.1,388.9 95.2,388.3 94.2,387.8 93,387.5 91.9,387.5 90.6,387.5 89.6,387.8 88.4,388.3 
		87.7,388.9 86.9,389.6 86.3,390.5 85.9,391.4 85.8,392.4 85.8,393.3 86.1,394.3 86.7,395.1 87.4,395.9 88.2,396.4 89.3,397 
		90.5,397.2 	"/>
	<polygon class="st22" points="91.8,394.9 92.8,394.6 93.8,394.1 94.4,393.3 94.7,392.4 94.4,391.5 93.8,390.8 92.9,390.3 
		91.9,390.2 91.3,390.2 90.7,390.3 90.1,390.5 89.8,390.8 89.1,391.5 89,392.4 89.1,393.3 89.8,394.1 90.6,394.6 	"/>
	<polygon class="st15" points="102.8,64.2 103.9,64.2 105,64.6 106,65 107.1,65.7 107.7,66.4 108.3,67.2 108.6,68.3 108.9,69.4 
		108.6,70.3 108.3,71.3 107.7,72.2 107.1,73 106,73.5 105,74.1 103.9,74.3 102.8,74.5 101.5,74.3 100.4,74.1 99.3,73.5 98.5,73 
		97.8,72.2 97.3,71.3 96.9,70.3 96.9,69.4 96.9,68.3 97.3,67.2 97.8,66.4 98.5,65.7 99.3,65 100.4,64.6 101.5,64.2 	"/>
	<polygon class="st22" points="102.8,66.9 103.8,67 104.8,67.6 105.5,68.3 105.8,69.4 105.5,70.3 104.8,71.1 103.8,71.5 102.8,71.7 
		101.7,71.5 100.9,71.1 100.2,70.3 100.1,69.4 100.2,68.3 100.9,67.6 101.7,67 	"/>
	<polygon class="st15" points="99.2,390.5 100.3,390.3 101.5,390 102.3,389.6 103.4,389 104,388.3 104.7,387.5 105,386.5 
		105.3,385.6 105.2,384.4 104.8,383.5 104.3,382.6 103.6,382 102.6,381.3 101.7,380.9 100.6,380.5 99.4,380.5 98.1,380.5 97,380.9 
		96,381.3 95.1,382 94.3,382.6 93.8,383.5 93.4,384.4 93.4,385.6 93.3,386.5 93.6,387.5 94.2,388.3 95,389 95.7,389.6 96.9,390 
		97.9,390.3 	"/>
	<polygon class="st22" points="99.2,387.9 100.2,387.7 101.2,387.2 101.8,386.5 102.1,385.6 101.8,384.4 101.2,383.8 100.3,383.2 
		99.4,383.1 98.2,383.2 97.3,383.8 96.6,384.4 96.4,385.6 96.5,386.5 97.2,387.2 98,387.7 	"/>
	<polygon class="st15" points="96.1,73 97.2,73 98.3,73.3 99.3,73.8 100.3,74.5 101,75.2 101.6,76.1 101.9,77.1 102.1,78.1 
		101.9,79.1 101.6,80.1 101,81 100.3,81.8 99.3,82.4 98.3,82.9 97.2,83.3 96.1,83.5 94.7,83.3 93.7,82.9 92.6,82.4 91.8,81.8 91,81 
		90.6,80.1 90.1,79.1 90.1,78.1 90.1,77.1 90.6,76.1 91,75.2 91.8,74.5 92.6,73.8 93.7,73.3 94.7,73 	"/>
	<polygon class="st22" points="96.1,75.8 97.1,75.9 98,76.4 98.5,77.1 98.9,78.1 98.5,79 98,79.9 97.1,80.5 96.1,80.7 95,80.5 
		94.1,79.9 93.4,79 93.2,78.1 93.4,77.1 94.1,76.4 95,75.9 	"/>
	<polygon class="st15" points="92.7,382.1 93.8,381.9 95,381.6 95.8,381.1 96.9,380.5 97.5,379.7 98.1,379 98.4,377.9 98.7,377 
		98.5,376 98.2,375.1 97.6,374.2 97,373.6 96,372.9 95.1,372.5 93.9,372.1 92.8,372.1 91.5,372.1 90.5,372.5 89.3,372.9 88.6,373.6 
		87.8,374.2 87.2,375.1 86.8,376 86.8,377 86.8,377.9 87.1,379 87.6,379.7 88.3,380.5 89.2,381.1 90.2,381.6 91.4,381.9 	"/>
	<polygon class="st22" points="92.7,379.5 93.7,379.3 94.6,378.7 95.3,377.8 95.6,377 95.3,376 94.7,375.4 93.8,374.8 92.8,374.7 
		91.6,374.8 90.7,375.4 90.1,376 89.9,377 89.9,377.8 90.6,378.7 91.5,379.3 	"/>
	<polygon class="st15" points="103.4,81.9 104.5,81.9 105.6,82.3 106.5,82.7 107.5,83.4 108.2,84.1 108.9,85 109.2,86 109.4,87.1 
		109.2,88 108.9,89 108.2,89.9 107.5,90.7 106.5,91.2 105.6,91.8 104.5,92 103.4,92.2 102,92 101,91.8 100,91.2 99.2,90.7 
		98.4,89.9 97.9,89 97.5,88 97.5,87.1 97.5,86 97.9,85 98.4,84.1 99.2,83.4 100,82.7 101,82.3 102,81.9 	"/>
	<polygon class="st22" points="103.4,84.5 104.4,84.6 105.4,85.3 105.9,86.1 106.3,87.1 105.9,88 105.4,88.8 104.4,89.3 103.4,89.6 
		102.1,89.3 101.3,88.8 100.7,88 100.6,87.1 100.7,86.1 101.3,85.3 102.1,84.6 	"/>
	<polygon class="st15" points="100.1,373.7 101.2,373.5 102.3,373.2 103.4,372.7 104.4,372.1 105,371.3 105.6,370.5 105.9,369.5 
		106.3,368.6 106,367.5 105.7,366.6 105.2,365.7 104.5,365.1 103.6,364.4 102.6,363.9 101.5,363.6 100.4,363.6 99.1,363.6 
		97.9,363.9 96.9,364.4 96,365.1 95.2,365.7 94.6,366.6 94.2,367.5 94.2,368.6 94.2,369.5 94.6,370.5 95.1,371.3 95.8,372.1 
		96.6,372.7 97.8,373.2 98.8,373.5 	"/>
	<polygon class="st22" points="100.1,370.9 101.2,370.7 102.1,370.2 102.7,369.4 103,368.6 102.8,367.6 102.2,366.8 101.2,366.3 
		100.2,366.2 99,366.3 98.1,366.8 97.5,367.6 97.3,368.6 97.4,369.4 98.1,370.2 98.9,370.7 	"/>
	<polygon class="st15" points="93.5,86.1 94.6,86.1 95.7,86.4 96.7,86.9 97.8,87.5 98.4,88.2 99,89.1 99.3,90.1 99.5,91.2 
		99.3,92.1 99,93.1 98.4,94 97.8,94.8 96.7,95.4 95.7,95.9 94.6,96.2 93.5,96.4 92.1,96.2 91.1,95.9 90,95.4 89.2,94.8 88.4,94 
		87.9,93.1 87.4,92.1 87.4,91.2 87.4,90.1 87.9,89.1 88.4,88.2 89.2,87.5 90,86.9 91.1,86.4 92.1,86.1 	"/>
	<polygon class="st22" points="93.5,88.9 94.5,89 95.5,89.6 96.1,90.2 96.4,91.2 96.1,92.1 95.5,92.9 94.5,93.5 93.5,93.7 
		92.3,93.5 91.4,92.9 90.8,92.1 90.6,91.2 90.8,90.2 91.4,89.6 92.3,89 	"/>
	<polygon class="st15" points="90.2,369.5 91.4,369.3 92.5,369.1 93.5,368.6 94.5,368.1 95.2,367.3 95.7,366.5 96.1,365.6 
		96.4,364.7 96.2,363.6 95.8,362.7 95.3,361.8 94.6,361.1 93.7,360.5 92.7,360 91.6,359.7 90.6,359.7 89.2,359.7 88.1,360 
		87.1,360.5 86.2,361.1 85.4,361.8 84.9,362.7 84.4,363.6 84.4,364.7 84.4,365.6 84.7,366.5 85.3,367.3 86.1,368.1 86.9,368.6 
		87.9,369.1 88.9,369.3 	"/>
	<polygon class="st22" points="90.5,367 91.4,366.7 92.4,366.2 92.9,365.5 93.4,364.7 93,363.6 92.4,362.9 91.5,362.4 90.5,362.3 
		89.2,362.4 88.4,362.9 87.8,363.6 87.4,364.7 87.6,365.5 88.2,366.2 88.6,366.4 89.1,366.7 89.8,366.8 	"/>
	<polygon class="st15" points="105.5,91.8 106.6,91.8 107.7,92.1 108.7,92.6 109.6,93.3 110.3,93.9 110.9,94.9 111.2,95.8 111.4,97 
		111.2,98 110.9,99 110.3,99.9 109.6,100.7 108.7,101.2 107.7,101.8 106.6,102.1 105.5,102.3 104.1,102.1 103,101.8 102,101.2 
		101.2,100.7 100.4,99.9 99.9,99 99.5,98 99.5,97 99.5,95.8 99.9,94.9 100.4,93.9 101.2,93.3 102,92.6 103,92.1 104.1,91.8 	"/>
	<polygon class="st22" points="105.5,94.5 106.5,94.6 107.4,95.2 108.1,95.9 108.4,97 108.1,97.8 107.4,98.7 106.5,99.3 105.5,99.5 
		104.3,99.3 103.5,98.7 102.8,97.8 102.7,97 102.8,95.9 103.5,95.2 104.3,94.6 	"/>
	<polygon class="st15" points="102.5,364.2 103.6,363.9 104.7,363.7 105.7,363.1 106.6,362.6 107.3,361.8 107.8,361 108.2,360 
		108.5,359.1 108.3,358.1 108,357.2 107.4,356.3 106.7,355.6 105.8,355 104.8,354.5 103.7,354.2 102.7,354.2 101.3,354.2 
		100.3,354.5 99.2,355 98.3,355.6 97.5,356.3 97,357.2 96.5,358.1 96.4,359.1 96.4,360 96.9,361 97.3,361.8 98.1,362.6 99,363.1 
		100,363.7 101.1,363.9 	"/>
	<polygon class="st22" points="102.5,361.6 103.5,361.4 104.5,360.8 105.2,359.9 105.5,359.1 105.2,358.1 104.6,357.4 103.7,356.9 
		102.7,356.8 102,356.8 101.5,356.9 100.9,357.1 100.6,357.4 99.9,358.1 99.8,359.1 99.9,359.9 100.4,360.8 101.3,361.4 	"/>
	<polygon class="st15" points="95.1,96.4 96.2,96.4 97.3,96.7 98.2,97.2 99.2,98 99.9,98.6 100.6,99.5 100.9,100.5 101.1,101.7 
		100.9,102.7 100.6,103.7 99.9,104.5 99.2,105.4 98.2,105.9 97.3,106.5 96.2,106.7 95.1,106.9 93.7,106.7 92.7,106.5 91.6,105.9 
		90.8,105.4 90,104.5 89.5,103.7 89,102.7 89,101.7 89,100.5 89.5,99.5 90,98.6 90.8,98 91.6,97.2 92.7,96.7 93.7,96.4 	"/>
	<polygon class="st22" points="95.1,99.2 96.1,99.3 97,99.9 97.5,100.5 97.9,101.7 97.5,102.6 97,103.5 96.1,104 95.1,104.2 
		93.8,104 92.9,103.5 92.4,102.6 92.1,101.7 92.4,100.5 92.9,99.9 93.8,99.3 	"/>
	<polygon class="st15" points="92.1,359.7 93.3,359.4 94.4,359.2 95.3,358.7 96.3,358.1 97,357.3 97.6,356.5 98,355.5 98.2,354.6 
		98,353.6 97.6,352.7 97.1,351.8 96.4,351.2 95.5,350.5 94.5,350 93.4,349.7 92.4,349.7 91,349.7 89.9,350 88.9,350.5 88,351.2 
		87.2,351.8 86.7,352.7 86.2,353.6 86.1,354.6 86.1,355.5 86.4,356.5 87,357.3 87.8,358.1 88.6,358.7 89.7,359.2 90.8,359.4 	"/>
	<polygon class="st22" points="92.1,356.9 93.2,356.6 94.2,356.2 94.7,355.4 95.1,354.6 94.7,353.6 94.2,352.9 93.3,352.4 
		92.4,352.3 91.7,352.3 91,352.4 90.5,352.6 90.1,352.9 89.5,353.6 89.3,354.6 89.5,355.4 90.1,356.2 90.9,356.6 	"/>
	<polygon class="st15" points="105.9,102.3 107.1,102.3 108.2,102.7 109.1,103.1 110.1,103.8 110.8,104.5 111.4,105.4 111.8,106.4 
		112,107.5 111.8,108.4 111.4,109.4 110.8,110.3 110.1,111.1 109.1,111.6 108.2,112.2 107.1,112.4 105.9,112.6 104.6,112.4 
		103.6,112.2 102.6,111.6 101.8,111.1 101,110.3 100.4,109.4 100.1,108.4 100.1,107.5 100.1,106.4 100.4,105.4 101,104.5 
		101.8,103.8 102.6,103.1 103.6,102.7 104.6,102.3 	"/>
	<polygon class="st22" points="105.9,104.9 106.5,104.9 107.1,105 107.5,105.2 108.1,105.7 108.6,106.5 108.9,107.5 108.6,108.4 
		108.1,109.2 107.5,109.4 107.1,109.6 106.5,109.7 105.9,109.8 104.8,109.6 103.9,109.2 103.4,108.4 103.2,107.5 103.4,106.5 
		103.9,105.7 104.8,105 	"/>
	<polygon class="st15" points="103.2,354.2 104.4,354 105.5,353.7 106.4,353.2 107.4,352.6 108.1,351.8 108.6,351 109,350 
		109.2,349.1 109.1,348 108.7,347.1 108.2,346.2 107.5,345.6 106.5,344.9 105.6,344.4 104.5,344.1 103.4,344.1 102,344.1 101,344.4 
		99.9,344.9 99.1,345.6 98.3,346.2 97.8,347.1 97.3,348 97.3,349.1 97.3,350 97.6,351 98.1,351.8 98.9,352.6 99.8,353.2 
		100.8,353.7 101.9,354 	"/>
	<polygon class="st22" points="103.2,351.6 104.3,351.4 105.2,350.8 105.8,350 106.2,349.1 105.8,348.1 105.3,347.5 104.4,346.9 
		103.4,346.8 102.1,346.9 101.2,347.5 100.7,348.1 100.4,349.1 100.6,350 101.2,350.8 102,351.4 	"/>
	<polygon class="st15" points="93,107.9 94.1,107.9 95.2,108.3 96.2,108.7 97.1,109.4 97.8,110.1 98.3,111 98.7,112 98.9,113.2 
		98.7,114.1 98.3,115.1 97.8,116 97.1,116.8 96.2,117.3 95.2,117.9 94.1,118.1 93,118.4 91.7,118.1 90.6,117.9 89.6,117.3 
		88.7,116.8 87.9,116 87.4,115.1 87,114.1 87,113.2 87,112 87.4,111 87.9,110.1 88.7,109.4 89.6,108.7 90.6,108.3 91.7,107.9 	"/>
	<polygon class="st22" points="93,110.7 94.1,110.8 95,111.4 95.5,112.1 95.7,113.2 95.5,114.1 95,114.9 94.1,115.3 93,115.6 
		92.4,115.4 91.8,115.3 91.3,115.1 90.9,114.9 90.2,114.1 90.1,113.2 90.2,112.1 90.9,111.4 91.3,111.1 91.8,110.8 92.4,110.7 	"/>
	<polygon class="st15" points="90.2,348.6 91.4,348.4 92.5,348.1 93.5,347.7 94.5,347.1 95.2,346.3 95.7,345.6 96.1,344.5 
		96.4,343.6 96.2,342.5 95.8,341.6 95.3,340.7 94.6,340.1 93.7,339.4 92.7,338.9 91.6,338.6 90.5,338.6 89.1,338.6 88,338.9 
		87,339.4 86.1,340.1 85.3,340.7 84.9,341.6 84.4,342.5 84.4,343.6 84.4,344.5 84.7,345.6 85.3,346.3 86.1,347.1 86.9,347.7 
		87.9,348.1 88.9,348.4 	"/>
	<polygon class="st22" points="90.2,346 91.4,345.8 92.3,345.3 92.8,344.5 93.2,343.6 92.8,342.5 92.3,341.9 91.4,341.3 90.5,341.2 
		89.2,341.3 88.3,341.9 87.7,342.5 87.4,343.6 87.6,344.5 88.2,345.3 89,345.8 	"/>
	<polygon class="st15" points="103.4,112.1 104.5,112.1 105.6,112.4 106.5,112.9 107.5,113.5 108.2,114.2 108.9,115.1 109.2,116.1 
		109.4,117.3 109.2,118.2 108.9,119.3 108.2,120.2 107.5,120.9 106.5,121.5 105.6,122.1 104.5,122.3 103.4,122.5 102,122.3 
		101,122.1 100,121.5 99.2,120.9 98.4,120.2 97.9,119.3 97.5,118.2 97.5,117.3 97.5,116.1 97.9,115.1 98.4,114.2 99.2,113.5 
		100,112.9 101,112.4 102,112.1 	"/>
	<polygon class="st22" points="103.4,114.9 104.4,115 105.4,115.6 105.9,116.2 106.3,117.3 105.9,118.2 105.4,119.1 104.4,119.7 
		103.4,119.9 102.1,119.7 101.3,119.1 100.7,118.2 100.6,117.3 100.7,116.2 101.3,115.6 102.1,115 	"/>
	<polygon class="st15" points="100.8,344.7 101.9,344.4 103,344.2 104,343.6 105,343.1 105.7,342.3 106.3,341.5 106.6,340.5 
		106.9,339.6 106.7,338.6 106.4,337.7 105.8,336.8 105.2,336.1 104.1,335.5 103.2,335 102,334.7 100.9,334.7 99.5,334.7 98.5,335 
		97.4,335.5 96.6,336.1 95.8,336.8 95.4,337.7 95,338.6 95,339.6 95,340.5 95.3,341.5 95.8,342.3 96.6,343.1 97.4,343.6 98.4,344.2 
		99.4,344.4 	"/>
	<polygon class="st22" points="100.8,342.1 101.9,341.9 102.8,341.3 103.4,340.5 103.7,339.6 103.4,338.6 102.8,337.9 101.9,337.4 
		100.9,337.3 99.8,337.4 98.9,337.9 98.2,338.6 98,339.6 98.1,340.5 98.8,341.3 99.5,341.9 	"/>
	<polygon class="st15" points="106.5,124.2 107.6,124.2 108.9,124.5 109.7,125 110.8,125.6 111.4,126.3 112,127.2 112.3,128.2 
		112.5,129.3 112.3,130.2 112,131.2 111.4,132.1 110.8,132.9 109.7,133.5 108.9,134.1 107.6,134.3 106.5,134.5 105.2,134.3 
		104.1,134.1 103,133.5 102.2,132.9 101.5,132.1 101,131.2 100.6,130.2 100.6,129.3 100.6,128.2 101,127.2 101.5,126.3 102.2,125.6 
		103,125 104.1,124.5 105.2,124.2 	"/>
	<polygon class="st22" points="106.5,126.8 107.5,126.9 108.5,127.5 109.1,128.3 109.4,129.3 109.1,130.2 108.5,131 107.5,131.6 
		106.5,131.8 105.3,131.6 104.5,131 103.8,130.2 103.7,129.3 103.8,128.3 104.5,127.5 105.3,126.9 	"/>
	<polygon class="st15" points="104.3,333.1 105.4,332.9 106.5,332.7 107.4,332.2 108.4,331.7 109.1,330.9 109.7,330.1 110.1,329.2 
		110.3,328.3 110.1,327.2 109.7,326.3 109.2,325.4 108.5,324.7 107.6,324 106.6,323.6 105.5,323.2 104.4,323.2 103,323.2 102,323.6 
		100.9,324 100.1,324.7 99.2,325.4 98.7,326.3 98.2,327.2 98.2,328.3 98.2,329.2 98.5,330.1 99.1,330.9 99.9,331.7 100.7,332.2 
		101.8,332.7 102.9,332.9 	"/>
	<polygon class="st22" points="104.3,330.6 105.3,330.4 106.3,329.9 106.8,329.1 107.2,328.3 106.8,327.3 106.3,326.5 105.4,325.9 
		104.4,325.8 103.1,325.9 102.2,326.5 101.7,327.3 101.5,328.3 101.6,329.1 102.2,329.9 103,330.4 	"/>
	<polygon class="st15" points="91.9,118.4 93,118.4 94.2,118.7 95.2,119.1 96.1,119.8 96.7,120.5 97.3,121.5 97.6,122.4 97.9,123.5 
		97.6,124.5 97.3,125.5 96.7,126.4 96.1,127.2 95.2,127.8 94.2,128.3 93,128.7 91.9,128.9 90.6,128.7 89.6,128.3 88.4,127.8 
		87.7,127.2 86.9,126.4 86.4,125.5 86,124.5 86,123.5 86,122.4 86.4,121.5 86.9,120.5 87.7,119.8 88.4,119.1 89.6,118.7 90.6,118.4 
			"/>
	<polygon class="st22" points="91.9,121 92.9,121.2 93.8,121.7 94.4,122.5 94.7,123.5 94.4,124.4 93.8,125.3 92.9,125.9 91.9,126.1 
		91.3,126 90.7,125.9 90.1,125.5 89.8,125.3 89.1,124.4 89,123.5 89.1,122.5 89.8,121.7 90.1,121.4 90.7,121.2 91.3,121 	"/>
	<polygon class="st15" points="89.3,338.6 90.5,338.4 91.6,338.2 92.6,337.7 93.6,337.1 94.3,336.4 95,335.6 95.3,334.6 95.6,333.7 
		95.4,332.7 95.1,331.8 94.5,330.9 93.8,330.2 92.9,329.5 91.9,329.1 90.8,328.7 89.7,328.7 88.3,328.7 87.2,329.1 86.2,329.5 
		85.3,330.2 84.5,330.9 84,331.8 83.5,332.7 83.5,333.7 83.5,334.6 83.9,335.6 84.4,336.4 85.2,337.1 86,337.7 87,338.2 88,338.4 	
		"/>
	<polygon class="st22" points="89.6,336 90.6,335.8 91.5,335.4 92,334.6 92.4,333.7 92.1,332.7 91.6,332 90.7,331.5 89.6,331.4 
		88.3,331.5 87.4,332 86.9,332.7 86.7,333.7 86.9,334.6 87.4,335.4 88.3,335.8 	"/>
	<polygon class="st15" points="89.7,129.3 90.8,129.3 92,129.7 92.9,130.1 93.9,130.8 94.6,131.5 95.2,132.4 95.5,133.4 95.7,134.5 
		95.5,135.5 95.2,136.5 94.6,137.4 93.9,138.2 92.9,138.8 92,139.3 90.8,139.5 89.7,139.8 88.3,139.5 87.3,139.3 86.3,138.8 
		85.5,138.2 84.7,137.4 84.2,136.5 83.9,135.5 83.9,134.5 83.9,133.4 84.2,132.4 84.7,131.5 85.5,130.8 86.3,130.1 87.3,129.7 
		88.3,129.3 	"/>
	<polygon class="st22" points="89.7,132.1 90.2,132.1 90.8,132.3 91.3,132.5 91.8,132.8 92.4,133.5 92.7,134.5 92.4,135.4 
		91.8,136.2 91.3,136.4 90.8,136.7 90.2,136.9 89.7,137 88.6,136.7 87.8,136.2 87.1,135.4 87,134.5 87.1,133.5 87.8,132.8 
		88.6,132.3 	"/>
	<polygon class="st15" points="87.7,328.3 88.8,328.1 89.9,327.8 90.8,327.3 91.8,326.7 92.5,325.9 93.2,325.1 93.5,324.1 
		93.7,323.2 93.5,322.2 93.2,321.3 92.6,320.4 92,319.8 91,319.1 90.1,318.7 89,318.3 87.9,318.3 86.5,318.3 85.4,318.7 84.4,319.1 
		83.5,319.8 82.7,320.4 82.3,321.3 81.8,322.2 81.8,323.2 81.7,324.1 82.1,325.1 82.6,325.9 83.4,326.7 84.2,327.3 85.3,327.8 
		86.3,328.1 	"/>
	<polygon class="st22" points="87.7,325.7 88.7,325.5 89.7,324.9 90.2,324 90.6,323.2 90.2,322.2 89.7,321.6 88.8,321 87.9,320.9 
		87.2,320.9 86.5,321 86,321.2 85.6,321.6 85,322.2 84.9,323.2 85,324 85.5,324.9 86.4,325.5 	"/>
	<polygon class="st15" points="99.8,133 100.9,133 102,133.4 102.9,133.8 103.9,134.5 104.6,135.2 105.3,136.2 105.6,137.1 
		105.8,138.2 105.6,139.1 105.3,140.1 104.6,141 103.9,141.8 102.9,142.3 102,142.9 100.9,143.1 99.8,143.4 98.4,143.1 97.3,142.9 
		96.3,142.3 95.4,141.8 94.6,141 94.2,140.1 93.7,139.1 93.7,138.2 93.7,137.1 94.2,136.2 94.6,135.2 95.4,134.5 96.3,133.8 
		97.3,133.4 98.4,133 	"/>
	<polygon class="st22" points="99.8,135.7 100.8,135.8 101.8,136.4 102.3,137.1 102.7,138.2 102.3,139.1 101.8,140 100.8,140.6 
		99.8,140.8 98.5,140.6 97.6,140 97.1,139.1 96.9,138.2 97.1,137.1 97.6,136.4 98.5,135.8 	"/>
	<polygon class="st15" points="97.5,324.8 98.7,324.6 99.8,324.4 100.8,323.8 101.8,323.2 102.5,322.5 103.1,321.6 103.5,320.6 
		103.7,319.7 103.5,318.7 103.1,317.8 102.6,316.9 101.9,316.2 101,315.5 100,315.2 98.9,314.8 97.9,314.8 96.5,314.8 95.5,315.2 
		94.4,315.5 93.5,316.2 92.7,316.9 92.1,317.8 91.7,318.7 91.6,319.7 91.6,320.6 91.9,321.6 92.5,322.5 93.3,323.2 94.1,323.8 
		95.1,324.4 96.2,324.6 	"/>
	<polygon class="st22" points="97.6,322 98.7,321.8 99.7,321.3 100.2,320.6 100.6,319.7 100.3,318.7 99.8,318 98.9,317.5 
		97.9,317.4 97.2,317.4 96.6,317.5 96.1,317.6 95.7,318 95.1,318.7 95,319.7 95,320.6 95.6,321.3 96.4,321.8 	"/>
	<polygon class="st15" points="108.1,141.8 109.2,141.8 110.3,142.1 111.2,142.6 112.2,143.4 112.9,144 113.4,145 113.8,146 
		114,147.2 113.8,148.1 113.4,149.1 112.9,149.9 112.2,150.8 111.2,151.3 110.3,151.9 109.2,152.1 108.1,152.3 106.7,152.1 
		105.6,151.9 104.6,151.3 103.8,150.8 103,149.9 102.5,149.1 102.1,148.1 102.1,147.2 102.1,146 102.5,145 103,144 103.8,143.4 
		104.6,142.6 105.6,142.1 106.7,141.8 	"/>
	<polygon class="st22" points="108.1,144.6 109.2,144.7 110.1,145.4 110.6,146.2 111,147.2 110.6,148.1 110.1,148.8 109.2,149.3 
		108.1,149.5 106.8,149.3 106,148.8 105.4,148.1 105.3,147.2 105.4,146.2 106,145.4 106.8,144.7 	"/>
	<polygon class="st15" points="106.2,316.2 107.3,316 108.4,315.7 109.3,315.2 110.3,314.6 111,313.8 111.7,313 112,312 
		112.2,311.1 112,310.1 111.7,309.2 111.1,308.3 110.4,307.7 109.4,307 108.5,306.7 107.4,306.3 106.3,306.3 104.9,306.3 
		103.9,306.7 102.8,307 102,307.7 101.2,308.3 100.7,309.2 100.2,310.1 100.2,311.1 100.2,312 100.6,313 101.1,313.8 101.9,314.6 
		102.7,315.2 103.7,315.7 104.8,316 	"/>
	<polygon class="st22" points="106.3,313.6 107.2,313.4 108.2,312.8 108.7,312 109.1,311.1 108.9,310.2 108.3,309.6 107.3,309 
		106.3,308.9 105,309 104.1,309.6 103.6,310.2 103.4,311.1 103.5,312 104.1,312.8 104.5,313 105,313.4 105.6,313.5 	"/>
	<polygon class="st15" points="107.5,164.8 108.6,164.8 109.9,165.1 110.8,165.5 111.8,166.2 112.4,166.9 113,167.9 113.3,168.9 
		113.6,170.1 113.3,171 113,172 112.4,172.8 111.8,173.7 110.8,174.3 109.9,174.8 108.6,175.1 107.5,175.3 106.2,175.1 105.2,174.8 
		104.1,174.3 103.4,173.7 102.6,172.8 102,172 101.7,171 101.7,170.1 101.7,168.9 102,167.9 102.6,166.9 103.4,166.2 104.1,165.5 
		105.2,165.1 106.2,164.8 	"/>
	<polygon class="st22" points="107.5,167.5 108.6,167.6 109.5,168.2 110.1,169 110.4,170.1 110.1,171 109.5,171.8 108.6,172.3 
		107.5,172.5 106.3,172.3 105.5,171.8 104.8,171 104.7,170.1 104.8,169 105.5,168.2 106.3,167.6 	"/>
	<polygon class="st15" points="106.2,294.3 107.3,294.1 108.4,293.9 109.3,293.3 110.3,292.8 111,292 111.7,291.2 112,290.2 
		112.2,289.3 112,288.2 111.7,287.3 111.1,286.4 110.4,285.7 109.4,285 108.5,284.6 107.4,284.2 106.3,284.2 104.9,284.2 
		103.9,284.6 102.8,285 102,285.7 101.2,286.4 100.7,287.3 100.2,288.2 100.2,289.3 100.2,290.2 100.6,291.2 101,292 101.8,292.8 
		102.7,293.3 103.7,293.9 104.8,294.1 	"/>
	<polygon class="st22" points="106.2,291.8 107.2,291.5 108.2,291 108.7,290.2 109.1,289.3 108.9,288.3 108.3,287.6 107.3,287.2 
		106.3,287 105,287.2 104.1,287.6 103.6,288.3 103.4,289.3 103.5,290.2 104.1,291 104.9,291.5 	"/>
	<polygon class="st15" points="108.1,208.2 109.2,208.2 110.3,208.6 111.2,209 112.2,209.7 112.9,210.4 113.4,211.3 113.8,212.3 
		114,213.4 113.8,214.3 113.4,215.3 112.9,216.2 112.2,217 111.2,217.6 110.3,218.1 109.2,218.3 108.1,218.6 106.7,218.3 
		105.6,218.1 104.6,217.6 103.8,217 103,216.2 102.5,215.3 102.1,214.3 102.1,213.4 102.1,212.3 102.5,211.3 103,210.4 103.8,209.7 
		104.6,209 105.6,208.6 106.7,208.2 	"/>
	<polygon class="st22" points="108.1,210.8 109.2,210.9 110.1,211.6 110.6,212.4 111,213.4 110.6,214.3 110.1,215.1 109.2,215.5 
		108.1,215.8 106.8,215.5 106,215.1 105.4,214.3 105.3,213.4 105.4,212.4 106,211.6 106.8,210.9 	"/>
	<polygon class="st15" points="107.7,252.9 108.9,252.6 110,252.4 110.9,252 111.9,251.4 112.4,250.6 113.1,249.8 113.3,248.9 
		113.7,248 113.4,247 113.1,246.1 112.5,245.2 111.9,244.6 111,243.9 110,243.4 108.9,243.1 107.8,243.1 106.5,243.1 105.5,243.4 
		104.4,243.9 103.6,244.6 102.7,245.2 102.1,246.1 101.7,247 101.7,248 101.7,248.9 102,249.8 102.6,250.6 103.4,251.4 104.1,252 
		105.3,252.4 106.4,252.6 	"/>
	<polygon class="st22" points="107.7,250.3 108.7,250.1 109.6,249.6 110.3,248.8 110.6,248 110.3,247 109.7,246.4 108.9,245.8 
		107.7,245.7 106.5,245.8 105.7,246.4 105,247 104.7,248 104.9,248.8 105.6,249.6 106.5,250.1 	"/>
	<polygon class="st15" points="108.1,152.9 109.2,152.9 110.3,153.2 111.2,153.7 112.2,154.3 112.9,155 113.4,156 113.8,156.9 
		114,158 113.8,159 113.4,160.1 112.9,160.8 112.2,161.7 111.2,162.3 110.3,162.9 109.2,163.1 108.1,163.3 106.7,163.1 105.6,162.9 
		104.6,162.3 103.8,161.7 103,160.8 102.5,160.1 102.1,159 102.1,158 102.1,156.9 102.5,156 103,155 103.8,154.3 104.6,153.7 
		105.6,153.2 106.7,152.9 	"/>
	<polygon class="st22" points="108.1,155.6 109.2,155.7 110.1,156.2 110.6,156.9 111,158 110.6,158.9 110.1,159.8 109.2,160.4 
		108.1,160.6 106.8,160.4 106,159.8 105.4,158.9 105.3,158 105.4,156.9 106,156.2 106.8,155.7 	"/>
	<polygon class="st15" points="106.3,305.9 107.4,305.6 108.6,305.4 109.6,304.9 110.6,304.3 111.3,303.5 112,302.7 112.3,301.7 
		112.5,300.8 112.3,299.7 112,298.8 111.4,297.9 110.8,297.2 109.9,296.6 108.9,296.1 107.7,295.8 106.6,295.8 105.3,295.8 
		104.3,296.1 103.1,296.6 102.3,297.2 101.5,297.9 100.9,298.8 100.4,299.7 100.4,300.8 100.4,301.7 100.8,302.7 101.3,303.5 
		102.1,304.3 102.9,304.9 103.9,305.4 104.9,305.6 	"/>
	<polygon class="st22" points="106.5,303.3 107.5,303.1 108.5,302.5 109.1,301.6 109.4,300.8 109.1,299.8 108.5,299.1 107.5,298.6 
		106.6,298.5 105.9,298.5 105.4,298.6 104.8,298.8 104.5,299.1 103.8,299.8 103.7,300.8 103.8,301.6 104.4,302.5 105.3,303.1 	"/>
	<polygon class="st15" points="108.5,196.1 109.6,196.1 110.9,196.5 111.8,196.9 112.8,197.6 113.4,198.3 114,199.2 114.3,200.2 
		114.6,201.3 114.3,202.2 114,203.2 113.4,204.1 112.8,204.9 111.8,205.4 110.9,206 109.6,206.2 108.5,206.5 107.2,206.2 106.2,206 
		105.2,205.4 104.4,204.9 103.6,204.1 103,203.2 102.7,202.2 102.7,201.3 102.7,200.2 103,199.2 103.6,198.3 104.4,197.6 
		105.2,196.9 106.2,196.5 107.2,196.1 	"/>
	<polygon class="st22" points="108.5,198.9 109.1,198.9 109.6,199.1 110.1,199.3 110.6,199.6 111.2,200.3 111.4,201.3 111.2,202.2 
		110.6,203.1 110.1,203.3 109.6,203.7 109.1,203.8 108.5,203.9 107.4,203.7 106.5,203.1 105.9,202.2 105.8,201.3 105.9,200.3 
		106.5,199.6 107.4,199.1 	"/>
	<polygon class="st15" points="107.8,264.4 109,264.2 110.1,264 111,263.5 112,262.9 112.7,262.2 113.3,261.4 113.7,260.4 
		113.9,259.5 113.7,258.3 113.3,257.5 112.8,256.6 112.2,255.9 111.2,255.2 110.3,254.8 109.2,254.4 108.1,254.4 106.7,254.4 
		105.6,254.8 104.6,255.2 103.7,255.9 102.9,256.6 102.5,257.5 102,258.3 102,259.5 101.9,260.4 102.2,261.4 102.8,262.2 
		103.6,262.9 104.4,263.5 105.5,264 106.5,264.2 	"/>
	<polygon class="st22" points="107.8,261.8 109,261.6 109.9,261.2 110.4,260.4 110.8,259.5 110.5,258.3 110,257.7 109.1,257.1 
		108.1,257 106.8,257.1 105.9,257.7 105.3,258.3 105,259.5 105.2,260.4 105.8,261.2 106.6,261.6 	"/>
	<polygon class="st15" points="107.5,175.7 108.6,175.7 109.9,176.1 110.8,176.5 111.8,177.3 112.4,178 113,178.9 113.3,179.9 
		113.6,180.9 113.3,181.9 113,182.9 112.4,183.8 111.8,184.7 110.8,185.3 109.9,185.8 108.6,186.1 107.5,186.3 106.2,186.1 
		105.2,185.8 104.1,185.3 103.4,184.7 102.6,183.8 102,182.9 101.7,181.9 101.7,180.9 101.7,179.9 102,178.9 102.6,178 103.4,177.3 
		104.1,176.5 105.2,176.1 106.2,175.7 	"/>
	<polygon class="st22" points="107.5,178.5 108.6,178.7 109.5,179.2 110.1,179.9 110.4,180.9 110.1,181.8 109.5,182.7 108.6,183.3 
		107.5,183.6 106.3,183.3 105.5,182.7 104.8,181.8 104.7,180.9 104.8,179.9 105.5,179.2 106.3,178.7 	"/>
	<polygon class="st15" points="106.3,283.9 107.4,283.7 108.5,283.5 109.5,283 110.5,282.4 111.3,281.7 112,280.9 112.3,279.9 
		112.5,279 112.3,277.9 112,277 111.4,276.1 110.8,275.4 109.9,274.7 108.9,274.3 107.7,273.9 106.6,273.9 105.3,273.9 104.3,274.3 
		103.1,274.7 102.3,275.4 101.5,276.1 100.9,277 100.4,277.9 100.4,279 100.4,279.9 100.8,280.9 101.3,281.7 102.1,282.4 102.9,283 
		103.9,283.5 104.9,283.7 	"/>
	<polygon class="st22" points="106.5,281.3 107.5,281.1 108.4,280.5 109.1,279.8 109.4,279 109.1,277.9 108.5,277.2 107.5,276.6 
		106.5,276.5 105.3,276.6 104.5,277.2 103.8,277.9 103.6,279 103.7,279.8 104.4,280.5 104.7,280.8 105.3,281.1 105.8,281.2 	"/>
	<polygon class="st15" points="108.1,185.6 109.2,185.6 110.3,185.9 111.2,186.4 112.2,187.2 112.9,187.9 113.4,188.9 113.8,189.9 
		114,191 113.8,191.9 113.4,192.9 112.9,193.7 112.2,194.6 111.2,195.1 110.3,195.7 109.2,195.9 108.1,196.1 106.7,195.9 
		105.6,195.7 104.6,195.1 103.8,194.6 103,193.7 102.5,192.9 102.1,191.9 102.1,191 102.1,189.9 102.5,188.9 103,187.9 103.8,187.2 
		104.6,186.4 105.6,185.9 106.7,185.6 	"/>
	<polygon class="st22" points="108.1,188.4 109.2,188.5 110.1,189.1 110.6,189.9 111,191 110.6,191.9 110.1,192.7 109.2,193.1 
		108.1,193.3 106.8,193.1 106,192.7 105.4,191.9 105.3,191 105.4,189.9 106,189.1 106.8,188.5 	"/>
	<polygon class="st15" points="107.2,274.5 108.3,274.3 109.4,274 110.3,273.5 111.3,272.9 112,272.1 112.7,271.4 113,270.3 
		113.2,269.4 113,268.3 112.7,267.4 112.1,266.5 111.4,265.9 110.5,265.2 109.5,264.7 108.4,264.4 107.3,264.4 105.9,264.4 
		104.9,264.7 103.8,265.2 103,265.9 102.2,266.5 101.7,267.4 101.2,268.3 101.1,269.4 101.1,270.3 101.5,271.4 102,272.1 
		102.8,272.9 103.6,273.5 104.7,274 105.8,274.3 	"/>
	<polygon class="st22" points="107.2,271.9 108.2,271.7 109.2,271.1 109.7,270.2 110.1,269.4 109.7,268.4 109.2,267.7 108.3,267.1 
		107.3,267 106.6,267 106,267.1 105.5,267.3 105.2,267.7 104.5,268.4 104.4,269.4 104.5,270.2 105.2,271.1 105.9,271.7 	"/>
	<polygon class="st15" points="91.5,186.6 92.6,186.6 93.7,187 94.6,187.4 95.6,188.2 96.3,188.9 97,189.9 97.3,190.9 97.5,192 
		97.3,192.9 97,193.9 96.3,194.8 95.6,195.6 94.6,196.1 93.7,196.7 92.6,196.9 91.5,197.2 90.1,196.9 89,196.7 87.9,196.1 
		87.1,195.6 86.3,194.8 85.8,193.9 85.4,192.9 85.4,192 85.4,190.9 85.8,189.9 86.3,188.9 87.1,188.2 87.9,187.4 89,187 90.1,186.6 
			"/>
	<polygon class="st22" points="91.5,189.4 92.5,189.5 93.4,190.2 93.9,191 94.2,192 93.9,192.9 93.4,193.7 92.5,194.2 91.5,194.5 
		90.8,194.4 90.2,194.2 89.7,193.9 89.3,193.7 88.7,192.9 88.6,192 88.7,191 89.3,190.2 89.7,189.8 90.2,189.5 90.8,189.4 	"/>
	<polygon class="st15" points="90.5,273.4 91.6,273.1 92.7,272.9 93.6,272.5 94.6,271.9 95.3,271.1 95.8,270.3 96.2,269.3 
		96.4,268.4 96.3,267.3 96,266.4 95.4,265.5 94.7,264.9 93.7,264.2 92.8,263.7 91.7,263.4 90.6,263.4 89.2,263.4 88.2,263.7 
		87.1,264.2 86.3,264.9 85.5,265.5 85,266.4 84.5,267.3 84.5,268.4 84.5,269.3 84.9,270.3 85.3,271.1 86.1,271.9 87,272.5 88,272.9 
		89.1,273.1 	"/>
	<polygon class="st22" points="90.5,270.8 91.5,270.6 92.4,270.1 93,269.3 93.4,268.4 93.2,267.3 92.6,266.6 91.6,266.1 90.6,266 
		89.3,266.1 88.4,266.6 87.9,267.3 87.7,268.4 87.8,269.3 88.4,270.1 89.2,270.6 	"/>
	<polygon class="st15" points="108.1,219.1 109.2,219.1 110.3,219.5 111.2,219.9 112.2,220.6 112.9,221.3 113.4,222.3 113.8,223.2 
		114,224.3 113.8,225.2 113.4,226.2 112.9,227.1 112.2,227.9 111.2,228.4 110.3,229 109.2,229.2 108.1,229.4 106.7,229.2 105.6,229 
		104.6,228.4 103.8,227.9 103,227.1 102.5,226.2 102.1,225.2 102.1,224.3 102.1,223.2 102.5,222.3 103,221.3 103.8,220.6 
		104.6,219.9 105.6,219.5 106.7,219.1 	"/>
	<polygon class="st22" points="108.1,221.8 109.2,221.9 110.1,222.5 110.6,223.2 111,224.3 110.6,225.2 110.1,226.1 109.2,226.6 
		108.1,226.9 106.8,226.6 106,226.1 105.4,225.2 105.3,224.3 105.4,223.2 106,222.5 106.8,221.9 	"/>
	<polygon class="st15" points="107.8,242.5 109,242.3 110.1,242.1 111,241.5 112,241 112.7,240.2 113.3,239.4 113.7,238.4 
		113.9,237.5 113.7,236.5 113.3,235.6 112.8,234.7 112.2,234 111.2,233.4 110.3,232.9 109.2,232.6 108.1,232.6 106.7,232.6 
		105.6,232.9 104.6,233.4 103.7,234 102.9,234.7 102.5,235.6 102,236.5 102,237.5 101.9,238.4 102.2,239.4 102.8,240.2 103.6,241 
		104.4,241.5 105.5,242.1 106.5,242.3 	"/>
	<polygon class="st22" points="107.8,240 109,239.7 109.9,239.2 110.4,238.4 110.8,237.5 110.4,236.6 109.9,235.8 109,235.3 
		108.1,235.1 106.8,235.3 105.9,235.8 105.3,236.6 105,237.5 105.2,238.4 105.8,239.2 106.6,239.7 	"/>
	<polygon class="st15" points="98.7,144.4 99.8,144.4 100.9,144.7 101.9,145.1 102.9,145.9 103.6,146.6 104.1,147.6 104.5,148.6 
		104.7,149.7 104.5,150.6 104.1,151.6 103.6,152.5 102.9,153.3 101.9,153.9 100.9,154.4 99.8,154.7 98.7,154.9 97.3,154.7 
		96.3,154.4 95.2,153.9 94.4,153.3 93.6,152.5 93.2,151.6 92.7,150.6 92.7,149.7 92.7,148.6 93.2,147.6 93.6,146.6 94.4,145.9 
		95.2,145.1 96.3,144.7 97.3,144.4 	"/>
	<polygon class="st22" points="98.7,147.2 99.7,147.3 100.7,147.9 101.3,148.7 101.7,149.7 101.3,150.6 100.7,151.4 99.7,151.9 
		98.7,152.1 97.5,151.9 96.6,151.4 96,150.6 95.7,149.7 96,148.7 96.6,147.9 97.5,147.3 	"/>
	<polygon class="st15" points="96.9,313.8 98,313.6 99.1,313.4 100,312.8 101,312.3 101.7,311.5 102.3,310.7 102.7,309.7 103,308.8 
		102.8,307.7 102.5,306.8 101.9,305.9 101.2,305.2 100.2,304.5 99.3,304.1 98.1,303.7 97,303.7 95.6,303.7 94.6,304.1 93.5,304.5 
		92.7,305.2 91.9,305.9 91.4,306.8 90.9,307.7 90.9,308.8 90.9,309.7 91.3,310.7 91.8,311.5 92.6,312.3 93.4,312.8 94.4,313.4 
		95.5,313.6 	"/>
	<polygon class="st22" points="96.9,311.1 97.9,310.9 98.8,310.5 99.4,309.7 99.8,308.8 99.4,307.8 98.9,307 98,306.4 97,306.3 
		95.7,306.4 94.8,307 94.3,307.8 94.1,308.8 94.2,309.7 94.8,310.5 95.6,310.9 	"/>
	<polygon class="st15" points="99.2,187.9 100.3,187.9 101.5,188.2 102.3,188.6 103.4,189.3 104,190 104.7,190.9 105,191.9 
		105.3,193 105,193.9 104.7,194.9 104,195.8 103.4,196.6 102.3,197.2 101.5,197.7 100.3,197.9 99.2,198.2 97.9,197.9 96.9,197.7 
		95.7,197.2 95,196.6 94.2,195.8 93.6,194.9 93.2,193.9 93.2,193 93.2,191.9 93.6,190.9 94.2,190 95,189.3 95.7,188.6 96.9,188.2 
		97.9,187.9 	"/>
	<polygon class="st22" points="99.2,190.4 100.2,190.5 101.2,191.2 101.8,192 102.1,193 101.8,193.9 101.2,194.7 100.2,195.2 
		99.2,195.5 98,195.2 97.2,194.7 96.5,193.9 96.4,193 96.5,192 97.2,191.2 98,190.5 	"/>
	<polygon class="st15" points="98.2,272.4 99.3,272.1 100.6,271.9 101.6,271.5 102.6,270.9 103.2,270.1 103.8,269.3 104.1,268.3 
		104.4,267.4 104.1,266.3 103.8,265.4 103.2,264.5 102.6,263.8 101.7,263.2 100.7,262.7 99.5,262.4 98.5,262.4 97.2,262.4 
		96.2,262.7 95.1,263.2 94.3,263.8 93.4,264.5 92.8,265.4 92.4,266.3 92.4,267.4 92.4,268.3 92.7,269.3 93.3,270.1 94.1,270.9 
		94.8,271.5 95.8,271.9 96.9,272.1 	"/>
	<polygon class="st22" points="98.3,269.8 99.3,269.6 100.3,269.1 101,268.3 101.3,267.4 101,266.4 100.4,265.6 99.5,265.1 
		98.5,265 97.9,265 97.3,265.1 96.7,265.3 96.4,265.6 95.7,266.4 95.6,267.4 95.6,268.3 96.3,269.1 97.2,269.6 	"/>
	<polygon class="st15" points="98.2,167.5 99.3,167.5 100.4,167.8 101.3,168.2 102.3,168.9 103,169.6 103.7,170.5 104,171.5 
		104.3,172.7 104,173.6 103.7,174.6 103,175.4 102.3,176.3 101.3,176.9 100.4,177.4 99.3,177.7 98.2,177.9 96.9,177.7 95.8,177.4 
		94.7,176.9 93.9,176.3 93.2,175.4 92.6,174.6 92.1,173.6 92.1,172.7 92.1,171.5 92.6,170.5 93.2,169.6 93.9,168.9 94.7,168.2 
		95.8,167.8 96.9,167.5 	"/>
	<polygon class="st22" points="98.2,170.1 99.2,170.3 100.2,170.8 100.8,171.6 101.1,172.7 100.8,173.6 100.2,174.4 99.2,174.8 
		98.2,175.1 97,174.8 96.1,174.4 95.5,173.6 95.3,172.7 95.5,171.6 96.1,170.8 97,170.3 	"/>
	<polygon class="st15" points="96.9,291.9 98,291.6 99.1,291.4 100,290.9 101,290.3 101.7,289.5 102.2,288.7 102.6,287.7 
		102.8,286.8 102.7,285.8 102.3,284.9 101.8,284 101.1,283.3 100.1,282.7 99.2,282.2 98.1,281.9 97,281.9 95.6,281.9 94.6,282.2 
		93.5,282.7 92.7,283.3 91.9,284 91.4,284.9 90.9,285.8 90.9,286.8 90.9,287.7 91.3,288.7 91.7,289.5 92.5,290.3 93.4,290.9 
		94.4,291.4 95.5,291.6 	"/>
	<polygon class="st22" points="96.9,289.3 97.9,289.1 98.8,288.5 99.4,287.7 99.8,286.8 99.4,285.8 98.9,285.1 98,284.6 97,284.5 
		95.7,284.6 94.8,285.1 94.3,285.8 94.1,286.8 94.2,287.7 94.8,288.5 95.6,289.1 	"/>
	<polygon class="st15" points="98.7,210.8 99.8,210.8 100.9,211.2 101.9,211.6 102.9,212.3 103.6,213 104.1,213.9 104.5,214.9 
		104.7,216 104.5,216.9 104.1,217.9 103.6,218.8 102.9,219.6 101.9,220.1 100.9,220.7 99.8,220.9 98.7,221.1 97.3,220.9 96.3,220.7 
		95.2,220.1 94.4,219.6 93.6,218.8 93.2,217.9 92.7,216.9 92.7,216 92.7,214.9 93.2,213.9 93.6,213 94.4,212.3 95.2,211.6 
		96.3,211.2 97.3,210.8 	"/>
	<polygon class="st22" points="98.7,213.4 99.7,213.5 100.7,214.2 101.3,215 101.7,216 101.3,216.9 100.7,217.8 99.7,218.3 
		98.7,218.6 97.5,218.3 96.6,217.8 96,216.9 95.7,216 96,215 96.6,214.2 97.5,213.5 	"/>
	<polygon class="st15" points="98.2,250.5 99.3,250.3 100.4,250.1 101.5,249.5 102.5,248.9 103.1,248.1 103.8,247.4 104.1,246.4 
		104.4,245.5 104.1,244.5 103.8,243.6 103.2,242.7 102.6,242 101.7,241.3 100.7,241 99.5,240.6 98.5,240.6 97.2,240.6 96.2,241 
		95.1,241.3 94.3,242 93.4,242.7 92.8,243.6 92.4,244.5 92.4,245.5 92.4,246.4 92.7,247.4 93.3,248.1 94.1,248.9 94.8,249.5 
		95.8,250.1 96.9,250.3 	"/>
	<polygon class="st22" points="98.3,247.9 99.3,247.7 100.3,247.1 100.9,246.4 101.3,245.5 101,244.5 100.4,243.8 99.9,243.4 
		99.4,243.3 98.9,243.2 98.3,243.2 97.2,243.3 96.3,243.8 95.6,244.5 95.4,245.5 95.6,246.4 96.3,247.1 97.2,247.7 	"/>
	<polygon class="st15" points="98.7,155.5 99.8,155.5 100.9,155.8 101.9,156.2 102.9,156.9 103.6,157.6 104.1,158.6 104.5,159.5 
		104.7,160.6 104.5,161.6 104.1,162.6 103.6,163.5 102.9,164.3 101.9,164.9 100.9,165.4 99.8,165.8 98.7,166 97.3,165.8 96.3,165.4 
		95.2,164.9 94.4,164.3 93.6,163.5 93.2,162.6 92.7,161.6 92.7,160.6 92.7,159.5 93.2,158.6 93.6,157.6 94.4,156.9 95.2,156.2 
		96.3,155.8 97.3,155.5 	"/>
	<polygon class="st22" points="98.7,158.1 99.7,158.3 100.7,158.8 101.3,159.6 101.7,160.6 101.3,161.5 100.7,162.4 99.7,163 
		98.7,163.2 97.5,163 96.6,162.4 96,161.5 95.7,160.6 96,159.6 96.6,158.8 97.5,158.3 	"/>
	<polygon class="st15" points="97,303.3 98.1,303.1 99.3,302.8 100.2,302.3 101.2,301.7 101.9,300.9 102.6,300.2 102.9,299.1 
		103.2,298.3 103,297.1 102.7,296.2 102.1,295.3 101.5,294.8 100.4,294.1 99.5,293.8 98.4,293.4 97.3,293.4 96,293.4 94.8,293.8 
		93.7,294.1 92.9,294.8 92.1,295.3 91.6,296.2 91.1,297.1 91.1,298.3 91.1,299.1 91.5,300.2 92,300.9 92.8,301.7 93.6,302.3 
		94.6,302.8 95.6,303.1 	"/>
	<polygon class="st22" points="97.2,300.7 98.2,300.5 99.1,299.9 99.8,299.1 100.1,298.3 99.8,297.2 99.2,296.5 98.3,295.9 
		97.2,295.8 96,295.9 95.1,296.5 94.4,297.2 94.2,298.3 94.4,299.1 95.1,299.9 96,300.5 	"/>
	<polygon class="st15" points="99.2,198.7 100.3,198.7 101.5,199.1 102.3,199.5 103.4,200.3 104,201 104.7,201.9 105,202.9 
		105.3,203.9 105,204.9 104.7,205.9 104,206.8 103.4,207.6 102.3,208.1 101.5,208.7 100.3,209 99.2,209.3 97.9,209 96.9,208.7 
		95.7,208.1 95,207.6 94.2,206.8 93.6,205.9 93.2,204.9 93.2,203.9 93.2,202.9 93.6,201.9 94.2,201 95,200.3 95.7,199.5 96.9,199.1 
		97.9,198.7 	"/>
	<polygon class="st22" points="99.2,201.5 100.2,201.6 101.2,202.2 101.8,202.9 102.1,203.9 101.8,204.8 101.2,205.7 100.2,206.2 
		99.2,206.5 98,206.2 97.2,205.7 96.5,204.8 96.4,203.9 96.5,202.9 97.2,202.2 98,201.6 	"/>
	<polygon class="st15" points="98.5,262 99.7,261.8 100.8,261.6 101.7,261 102.7,260.5 103.4,259.7 104,258.9 104.4,257.9 
		104.6,257 104.4,256 104,255.1 103.5,254.2 102.9,253.5 101.9,252.9 100.9,252.4 99.8,252.1 98.7,252.1 97.3,252.1 96.3,252.4 
		95.2,252.9 94.4,253.5 93.6,254.2 93.2,255.1 92.7,256 92.7,257 92.6,257.9 92.9,258.9 93.5,259.7 94.3,260.5 95.1,261 96.2,261.6 
		97.2,261.8 	"/>
	<polygon class="st22" points="98.5,259.5 99.5,259.2 100.6,258.7 101.1,257.8 101.5,257 101.1,256 100.6,255.3 99.7,254.8 
		98.7,254.7 97.5,254.8 96.6,255.3 96,256 95.7,257 95.8,257.8 96.5,258.7 97.3,259.2 	"/>
	<polygon class="st15" points="98.2,177.3 99.3,177.3 100.4,177.7 101.3,178.1 102.3,178.9 103,179.6 103.7,180.5 104,181.5 
		104.3,182.5 104,183.5 103.7,184.5 103,185.4 102.3,186.2 101.3,186.7 100.4,187.3 99.3,187.6 98.2,187.9 96.9,187.6 95.8,187.3 
		94.7,186.7 93.9,186.2 93.2,185.4 92.6,184.5 92.1,183.5 92.1,182.5 92.1,181.5 92.6,180.5 93.2,179.6 93.9,178.9 94.7,178.1 
		95.8,177.7 96.9,177.3 	"/>
	<polygon class="st22" points="98.2,180.1 99.2,180.2 100.2,180.8 100.8,181.5 101.1,182.5 100.8,183.4 100.2,184.3 99.2,184.8 
		98.2,185 97,184.8 96.1,184.3 95.5,183.4 95.3,182.5 95.5,181.5 96.1,180.8 97,180.2 	"/>
	<polygon class="st15" points="97,282.3 98.1,282.1 99.2,281.9 100.2,281.4 101.2,280.9 101.9,280.1 102.6,279.3 102.9,278.3 
		103.2,277.4 103,276.3 102.7,275.4 102.1,274.5 101.5,273.8 100.4,273.1 99.4,272.7 98.3,272.4 97.2,272.4 95.8,272.4 94.7,272.7 
		93.7,273.1 92.8,273.8 92,274.5 91.6,275.4 91.1,276.3 91.1,277.4 91.1,278.3 91.5,279.3 92,280.1 92.8,280.9 93.6,281.4 
		94.6,281.9 95.6,282.1 	"/>
	<polygon class="st22" points="97.2,279.8 98.1,279.5 99.1,279.1 99.7,278.3 100.1,277.4 99.8,276.3 99.1,275.6 98.2,275.1 
		97.2,274.9 96,275.1 95.1,275.6 94.4,276.3 94.2,277.4 94.3,278.3 95,279.1 95.3,279.3 95.8,279.5 96.5,279.6 	"/>
	<polygon class="st15" points="98.7,220.6 99.8,220.6 100.9,220.9 101.9,221.4 102.9,222.1 103.6,222.8 104.1,223.7 104.5,224.7 
		104.7,225.8 104.5,226.9 104.1,227.9 103.6,228.6 102.9,229.5 101.9,230.1 100.9,230.7 99.8,230.9 98.7,231.1 97.3,230.9 
		96.3,230.7 95.2,230.1 94.4,229.5 93.6,228.6 93.2,227.9 92.7,226.9 92.7,225.8 92.7,224.7 93.2,223.7 93.6,222.8 94.4,222.1 
		95.2,221.4 96.3,220.9 97.3,220.6 	"/>
	<polygon class="st22" points="98.7,223.4 99.7,223.5 100.7,224.1 101.3,224.7 101.7,225.8 101.3,226.7 100.7,227.6 99.7,228.2 
		98.7,228.4 97.5,228.2 96.6,227.6 96,226.7 95.7,225.8 96,224.7 96.6,224.1 97.5,223.5 	"/>
	<polygon class="st15" points="98.5,241.2 99.7,241 100.8,240.8 101.7,240.2 102.7,239.6 103.4,238.8 104,238 104.4,236.9 
		104.6,235.9 104.4,234.9 104,234 103.5,233.1 102.9,232.5 101.9,231.8 100.9,231.5 99.8,231.1 98.7,231.1 97.3,231.1 96.3,231.5 
		95.2,231.8 94.4,232.5 93.6,233.1 93.2,234 92.7,234.9 92.7,235.9 92.6,236.9 92.9,238 93.5,238.8 94.3,239.6 95.1,240.2 
		96.2,240.8 97.2,241 	"/>
	<polygon class="st22" points="98.5,238.4 99.5,238.2 100.6,237.6 101.1,236.8 101.5,235.9 101.1,235 100.6,234.4 99.7,233.8 
		98.7,233.7 97.5,233.8 96.6,234.4 96,235 95.7,235.9 95.8,236.8 96.4,237.6 97.3,238.2 	"/>
	<polygon class="st15" points="89.6,140.8 90.5,140.8 91.5,141.2 92.4,141.8 93.2,142.6 93.7,143.5 94.3,144.6 94.5,145.8 
		94.7,147.2 94.5,148.3 94.3,149.5 93.7,150.5 93.2,151.5 92.4,152.2 91.5,152.8 90.5,153.1 89.6,153.3 88.4,153.1 87.4,152.8 
		86.5,152.2 85.9,151.5 85.2,150.5 84.7,149.5 84.4,148.3 84.4,147.2 84.4,145.8 84.7,144.6 85.2,143.5 85.9,142.6 86.5,141.8 
		87.4,141.2 88.4,140.8 	"/>
	<polygon class="st22" points="89.6,144 90.5,144.2 91.3,144.9 91.5,145.3 91.7,145.8 91.8,146.5 91.9,147.2 91.7,148.2 91.3,149.2 
		90.5,149.7 89.6,150.1 88.6,149.7 87.8,149.2 87.2,148.2 87.1,147.2 87.1,146.5 87.2,145.8 87.4,145.3 87.8,144.9 88.6,144.2 	"/>
	<polygon class="st15" points="87.7,317.2 88.6,317 89.6,316.6 90.5,316.1 91.3,315.4 91.8,314.4 92.5,313.4 92.7,312.3 93,311.1 
		92.8,309.8 92.6,308.8 92,307.8 91.5,307 90.7,306.2 89.8,305.6 88.8,305.3 87.9,305.3 86.8,305.3 85.8,305.6 84.7,306.2 84.1,307 
		83.3,307.8 82.8,308.8 82.5,309.8 82.5,311.1 82.5,312.3 82.8,313.4 83.3,314.4 84,315.4 84.6,316.1 85.5,316.6 86.5,317 	"/>
	<polygon class="st22" points="87.7,314.2 88.6,313.8 89.5,313.3 89.7,312.7 90,312.3 90.1,311.7 90.2,311.1 90,310 89.6,309.2 
		88.8,308.6 87.9,308.5 86.8,308.6 86,309.2 85.3,310 85.2,311.1 85.2,311.7 85.3,312.3 85.5,312.7 85.9,313.3 86.7,313.8 	"/>
	<polygon class="st15" points="90.6,163.8 91.5,163.8 92.5,164.2 93.4,164.8 94.2,165.5 94.7,166.4 95.3,167.6 95.5,168.8 
		95.7,170.1 95.5,171.3 95.3,172.4 94.7,173.4 94.2,174.4 93.4,175.1 92.5,175.7 91.5,176.1 90.6,176.3 89.5,176.1 88.4,175.7 
		87.6,175.1 86.9,174.4 86.2,173.4 85.8,172.4 85.4,171.3 85.4,170.1 85.4,168.8 85.8,167.6 86.2,166.4 86.9,165.5 87.6,164.8 
		88.4,164.2 89.5,163.8 	"/>
	<polygon class="st22" points="90.6,167 91.5,167.2 92.4,167.9 92.6,168.2 92.9,168.8 93,169.5 93.2,170.1 92.9,171.2 92.4,172 
		91.5,172.7 90.6,173.1 89.6,172.7 88.9,172 88.3,171.2 88.2,170.1 88.2,169.5 88.3,168.8 88.6,168.2 88.9,167.9 89.6,167.2 	"/>
	<polygon class="st15" points="89,295.3 90,295.1 91,294.8 91.9,294.1 92.8,293.4 93.4,292.4 94.1,291.5 94.3,290.4 94.6,289.3 
		94.4,287.9 94.2,286.9 93.6,285.9 93,285.1 92.3,284.4 91.4,283.8 90.4,283.5 89.3,283.5 88.2,283.5 87.2,283.8 86.2,284.4 
		85.5,285.1 84.9,285.9 84.4,286.9 84.1,287.9 84.1,289.3 84.1,290.4 84.4,291.5 84.9,292.4 85.5,293.4 86.2,294.1 87.1,294.8 
		88,295.1 	"/>
	<polygon class="st22" points="89.2,292.2 90.1,291.9 90.9,291.3 91.5,290.3 91.8,289.3 91.6,288.1 91,287.3 90.2,286.6 89.3,286.5 
		88.3,286.6 87.6,287.3 86.9,288.1 86.8,289.3 86.9,290.3 87.4,291.3 88.2,291.9 	"/>
	<polygon class="st15" points="91.1,207.1 92.1,207.1 93.2,207.6 93.9,208.1 94.8,208.9 95.4,209.8 96,210.8 96.2,212.1 96.4,213.4 
		96.2,214.5 96,215.8 95.4,216.8 94.8,217.8 93.9,218.4 93.2,219 92.1,219.3 91.1,219.6 90,219.3 89.1,219 88.1,218.4 87.4,217.8 
		86.8,216.8 86.3,215.8 86,214.5 86,213.4 86,212.1 86.3,210.8 86.8,209.8 87.4,208.9 88.1,208.1 89.1,207.6 90,207.1 	"/>
	<polygon class="st22" points="91.1,210.5 92,210.6 92.9,211.3 93.2,211.6 93.5,212.2 93.6,212.7 93.7,213.4 93.5,214.4 92.9,215.4 
		92,216 91.1,216.3 90,216 89.3,215.4 88.8,214.4 88.7,213.4 88.7,212.7 88.8,212.2 89,211.6 89.3,211.3 90,210.6 	"/>
	<polygon class="st15" points="90.6,253.9 91.6,253.6 92.6,253.3 93.5,252.7 94.3,252.1 94.8,251.2 95.4,250.2 95.7,249 96,248 
		95.7,246.7 95.5,245.7 95,244.6 94.4,243.8 93.6,243 92.8,242.4 91.8,242 90.9,242 89.8,242 88.8,242.4 87.8,243 87.1,243.8 
		86.4,244.6 86,245.7 85.6,246.7 85.6,248 85.5,249 85.9,250.2 86.2,251.2 86.9,252.1 87.6,252.7 88.4,253.3 89.5,253.6 	"/>
	<polygon class="st22" points="90.6,250.8 91.5,250.5 92.4,249.9 92.9,249 93.2,248 92.9,246.8 92.5,245.9 91.7,245.3 90.8,245.1 
		89.7,245.3 89,245.9 88.4,246.8 88.2,248 88.3,249 88.9,249.9 89.6,250.5 	"/>
	<polygon class="st15" points="89.6,151.8 90.5,151.8 91.5,152.2 92.4,152.8 93.2,153.6 93.7,154.4 94.3,155.5 94.5,156.7 94.7,158 
		94.5,159.2 94.3,160.4 93.7,161.4 93.2,162.5 92.4,163.2 91.5,163.9 90.5,164.2 89.6,164.4 88.4,164.2 87.4,163.9 86.5,163.2 
		85.9,162.5 85.2,161.4 84.7,160.4 84.4,159.2 84.4,158 84.4,156.7 84.7,155.5 85.2,154.4 85.9,153.6 86.5,152.8 87.4,152.2 
		88.4,151.8 	"/>
	<polygon class="st22" points="89.6,155.1 90.5,155.3 91.3,155.9 91.7,156.8 91.9,158 91.7,159.2 91.3,160.2 90.5,160.7 89.6,161.1 
		88.6,160.7 87.8,160.2 87.2,159.2 87.1,158 87.2,156.8 87.8,155.9 88.6,155.3 	"/>
	<polygon class="st15" points="87.9,306.9 88.9,306.7 89.9,306.3 90.7,305.6 91.6,305 92.1,304 92.7,303.1 92.9,301.9 93.2,300.8 
		92.9,299.5 92.7,298.5 92.1,297.4 91.6,296.6 90.8,295.8 89.9,295.2 88.9,294.8 88,294.8 86.9,294.8 86,295.2 85,295.8 84.3,296.6 
		83.6,297.4 83.2,298.5 82.8,299.5 82.8,300.8 82.7,301.9 83.1,303.1 83.4,304 84.1,305 84.7,305.6 85.6,306.3 86.7,306.7 	"/>
	<polygon class="st22" points="87.9,303.6 88.8,303.3 89.7,302.7 90.2,301.8 90.5,300.8 90.2,299.6 89.7,298.7 88.9,298.1 88,297.9 
		87,298.1 86.2,298.7 85.5,299.6 85.4,300.8 85.5,301.8 86.1,302.7 86.8,303.3 	"/>
	<polygon class="st15" points="90.1,195.1 91,195.1 92,195.6 92.9,196 93.7,196.8 94.3,197.7 94.8,198.7 95.1,200 95.3,201.3 
		95.1,202.4 94.8,203.7 94.3,204.7 93.7,205.7 92.9,206.3 92,206.9 91,207.2 90.1,207.5 89,207.2 88,206.9 87.1,206.3 86.4,205.7 
		85.6,204.7 85.2,203.7 84.9,202.4 84.9,201.3 84.9,200 85.2,198.7 85.6,197.7 86.4,196.8 87.1,196 88,195.6 89,195.1 	"/>
	<polygon class="st22" points="90.1,198.4 91,198.6 91.9,199.2 92.5,200.1 92.7,201.3 92.5,202.4 91.9,203.4 91,204.1 90.1,204.4 
		89,204.1 88.3,203.4 87.8,202.4 87.7,201.3 87.8,200.1 88.3,199.2 89,198.6 	"/>
	<polygon class="st15" points="89.3,265.5 90.2,265.3 91.3,265 92.1,264.3 92.9,263.6 93.5,262.6 94.1,261.7 94.4,260.6 94.6,259.5 
		94.4,258.1 94.2,257.1 93.7,256 93.2,255.2 92.4,254.4 91.5,253.9 90.5,253.4 89.6,253.4 88.4,253.4 87.4,253.9 86.5,254.4 
		85.9,255.2 85.1,256 84.6,257.1 84.3,258.1 84.2,259.5 84.2,260.6 84.5,261.7 85,262.6 85.6,263.6 86.3,264.3 87.2,265 88.2,265.3 
			"/>
	<polygon class="st22" points="89.3,262.4 90.2,262 91.1,261.5 91.7,260.5 91.9,259.5 91.7,258.2 91.3,257.3 90.5,256.8 89.6,256.6 
		88.6,256.8 87.8,257.3 87.1,258.2 87,259.5 87.1,260.5 87.7,261.5 88.3,262 	"/>
	<polygon class="st15" points="89,174.7 89.9,174.7 90.9,175.2 91.8,175.7 92.6,176.5 93.2,177.4 93.7,178.4 93.9,179.6 94.2,180.9 
		93.9,182 93.7,183.3 93.2,184.3 92.6,185.4 91.8,186.1 90.9,186.7 89.9,187.1 89,187.3 87.9,187.1 86.9,186.7 86,186.1 85.3,185.4 
		84.6,184.3 84.2,183.3 83.9,182 83.9,180.9 83.9,179.6 84.2,178.4 84.6,177.4 85.3,176.5 86,175.7 86.9,175.2 87.9,174.7 	"/>
	<polygon class="st22" points="89,178 89.9,178.2 90.8,178.9 91.4,179.8 91.6,180.9 91.5,181.5 91.4,182.1 91,182.6 90.8,183.1 
		89.9,183.7 89,184 88,183.7 87.2,183.1 86.8,182.6 86.5,182.1 86.4,181.5 86.4,180.9 86.5,179.8 87.2,178.9 88,178.2 	"/>
	<polygon class="st15" points="87.9,284.8 88.8,284.6 89.8,284.2 90.6,283.7 91.5,283 92,282.1 92.6,281.1 92.9,280 93.2,279 
		92.9,277.6 92.7,276.5 92.1,275.5 91.6,274.6 90.8,273.8 89.9,273.4 88.9,272.9 88,272.9 86.9,272.9 86,273.4 85,273.8 84.3,274.6 
		83.5,275.5 83.1,276.5 82.7,277.6 82.6,279 82.6,280 83,281.1 83.4,282.1 84.1,283 84.7,283.7 85.6,284.2 86.7,284.6 	"/>
	<polygon class="st22" points="87.9,281.7 88.8,281.4 89.7,280.9 90.2,280 90.5,279 90.4,278.3 90.2,277.6 89.9,277.1 89.7,276.7 
		88.9,276.1 88,275.9 87,276.1 86.2,276.7 85.8,277.1 85.5,277.6 85.4,278.3 85.4,279 85.5,280 86.1,280.9 86.8,281.4 	"/>
	<polygon class="st15" points="89.6,218 90.5,218 91.5,218.4 92.4,219 93.2,219.8 93.7,220.7 94.3,221.7 94.5,222.9 94.7,224.3 
		94.5,225.4 94.3,226.6 93.7,227.6 93.2,228.6 92.4,229.3 91.5,229.9 90.5,230.2 89.6,230.4 88.4,230.2 87.4,229.9 86.5,229.3 
		85.9,228.6 85.2,227.6 84.7,226.6 84.4,225.4 84.4,224.3 84.4,222.9 84.7,221.7 85.2,220.7 85.9,219.8 86.5,219 87.4,218.4 
		88.4,218 	"/>
	<polygon class="st22" points="89.6,221.4 90.5,221.6 91.3,222.1 91.7,223 91.9,224.3 91.7,225.4 91.3,226.4 90.5,227 89.6,227.3 
		88.6,227 87.8,226.4 87.2,225.4 87.1,224.3 87.2,223 87.8,222.1 88.6,221.6 	"/>
	<polygon class="st15" points="89.2,243.6 90.2,243.3 91.3,243 92.1,242.4 92.9,241.8 93.5,240.8 94.1,239.7 94.4,238.6 94.6,237.5 
		94.4,236.2 94.2,235.1 93.7,234.1 93.2,233.4 92.4,232.6 91.5,232 90.5,231.7 89.6,231.7 88.4,231.7 87.4,232 86.4,232.6 
		85.8,233.4 85,234.1 84.5,235.1 84.2,236.2 84.2,237.5 84.1,238.6 84.4,239.7 84.9,240.8 85.5,241.8 86.2,242.4 87.2,243 
		88.1,243.3 	"/>
	<polygon class="st22" points="89.3,240.4 90.2,240.1 91.1,239.5 91.6,238.5 91.9,237.5 91.7,236.4 91.1,235.5 90.4,234.9 
		89.3,234.8 88.4,234.9 87.7,235.5 87.1,236.4 87,237.5 87.1,238.5 87.7,239.5 88.3,240.1 	"/>
</g>
</svg>
