<?xml version="1.0" encoding="utf-8"?>
<!-- Generator: Adobe Illustrator 26.4.0, SVG Export Plug-In . SVG Version: 6.00 Build 0)  -->
<svg version="1.1" id="a" xmlns="http://www.w3.org/2000/svg" xmlns:xlink="http://www.w3.org/1999/xlink" x="0px" y="0px"
	 viewBox="0 0 383.8 340.2" style="enable-background:new 0 0 383.8 340.2;" xml:space="preserve">
<style type="text/css">
	.st0{fill:#EDF1F2;}
</style>
<path class="st0" d="M379.3,198.5c-2.8,15-5.4,30-8.9,44.8c-5.4,23-19.6,38.9-41.4,47.7c-33.2,13.3-66.9,25.6-99.7,39.6
	c-38.8,16.6-74.4,10.9-108.6-11.9c-28.9-19.3-58-38-89.3-53.4C9.5,254.5,0,234.8,0,211.4c-0.1-49.6,0.9-99.2,2-148.8
	C2.3,50.4,3.9,38.3,6,26c0.2-1.4,2.2-1.5,2.6-0.1c3,12.7,5.9,25.4,9.2,38.1c6.2,23.8,11.4,48,19.4,71.3
	c8.1,23.5,22.3,43.7,42.5,59.1l0,0c0.9,0.7,2.2-0.1,2.1-1.2c-2.4-17.3-4.7-34.2-7.3-52.5c-0.2-1.2,1.3-2,2.2-1.1
	c18,16.7,37.4,29.9,45.4,53c7,20.1-7.4,40.5-28.6,41.7c-16.8,1-32.1-4-47.2-10.2c-0.5-0.2-1-0.4-1.6-0.6c-1.2-0.4-2.2,1.1-1.3,2.1
	c5.7,6.7,11.3,13.5,17.4,19.8c25,25.9,53.2,47.2,87.4,59.4c5.5,2,11.7,3,17.5,3.1c14,0.2,23-7.6,24.9-21.4
	c2.5-17.3,4.6-34.7,6.8-51.8c0.2-1.3,1.9-1.6,2.5-0.4c4.6,9.8,9.1,19.9,14,29.7c11.1,22,21.6,28.4,45.6,23.7
	c19.9-3.9,39.4-10.3,58.6-16.8c15.4-5.2,23.3-17.6,28.8-32.7c7.1-19.4,16.4-38,24.3-57.1"/>
<path class="st0" d="M379.4,114.4c-3.5-26.1-27.5-45.8-53.8-42.8c-25.5,2.8-50.9,7.4-76.2,11.7c-6.5,1.1-12.7,4.4-21.1,7.4
	c18.4-2,34.3-4.4,50.4-5.3c16.2-0.9,32.5-0.2,48.8,0.9c-60.7,27.3-110.8,64.9-137.1,128.4c2-13.4,4.1-26.9,5.9-40.3
	c2-14.6,4.7-29.2,5.3-44c1-22.3-10.5-38.2-35.1-47c-21.3-7.7-43.4-13.1-65.2-19.4c-23-6.7-46.2-12.9-69.1-20.1
	c-7.5-2.3-14.6-6.5-21.1-10.9c-7.9-5.4-7.6-13,1.3-16.8c9.3-3.9,19.5-6.9,29.5-7.8C67.3,6.2,92.7,5.5,118.2,4
	c16.4-0.9,32.9-1.7,49.3-3.3c32.1-3.1,62.4,3.3,91.9,15.5c12.2,5,24.3,10.2,36.2,16.3c-16.7-3-33.5-5.9-50.2-8.9
	c-29.7-5.2-59.4-9.9-89.7-8.5c-23.6,1.1-46.3,6-67,18.3c44.8,35.3,125.9,54.3,183.7,30.5c-7.4-4.1-13-8.5-19.4-10.6
	c-18-5.6-36.3-10.2-54.5-15.3c-3.8-1-7.5-2.2-11.1-4.2c14.7,0.8,29.4,1.5,44.1,2.3c23.8,1.3,47.5,2.9,71.3,3.7
	c21.6,0.8,42.5,4.3,60.3,17.3C384.2,72.9,388.3,92,379.4,114.4L379.4,114.4z"/>
<path class="st0" d="M58.9,58.7c-2.6,24.7-5.2,48.6-7.7,72.4c-0.9,0.2-1.8,0.3-2.7,0.5c-4.2-16.8-9.3-33.5-12.4-50.5
	C33.8,69.3,33.4,57,33.8,45c0.3-10.3,2-11,12-10c41.8,4.3,76.7,22.1,105,53c0.2,0.2,0.3,0.6,1,1.7c-15.9-5.3-31.1-10.4-46.3-15.4
	C90.2,69.2,74.8,64.1,58.9,58.7L58.9,58.7z"/>
<path class="st0" d="M245.9,250.4c30.7-32,60.7-63.4,90.7-94.7c-7.3,24.3-17.3,47.1-34.3,65.9C287.6,237.9,269.7,248.8,245.9,250.4z
	"/>
<path class="st0" d="M253.6,202c31.2-33.2,62.3-66.4,93.5-99.6C324.7,143.7,293.7,177.1,253.6,202L253.6,202z"/>
</svg>
