<?xml version="1.0" encoding="UTF-8"?>
<svg id="a" xmlns="http://www.w3.org/2000/svg" viewBox="0 0 383.81 340.21">
  <defs>
    <style>
      .b {
        fill: #00a7fe;
      }
    </style>
  </defs>
  <path class="b"
    d="M379.26,198.49c-2.8,14.98-5.38,30.02-8.89,44.83-5.43,22.95-19.58,38.92-41.42,47.68-33.2,13.33-66.86,25.58-99.74,39.65-38.8,16.61-74.43,10.88-108.55-11.86-28.89-19.26-58.05-37.96-89.26-53.43C9.53,254.53,.03,234.78,0,211.39-.06,161.78,.9,112.16,1.99,62.56c.27-12.15,1.9-24.26,4.03-36.53,.25-1.41,2.25-1.47,2.58-.08,3.01,12.7,5.94,25.43,9.22,38.07,6.19,23.84,11.44,48.04,19.44,71.28,8.1,23.53,22.32,43.71,42.45,59.13h0c.93,.71,2.25-.07,2.09-1.22-2.39-17.29-4.73-34.23-7.26-52.54-.17-1.23,1.3-1.99,2.21-1.15,17.97,16.72,37.45,29.92,45.43,53,6.97,20.14-7.37,40.46-28.63,41.69-16.76,.97-32.1-3.96-47.22-10.22-.51-.21-1.02-.43-1.57-.6-1.24-.38-2.18,1.15-1.33,2.13,5.73,6.66,11.31,13.47,17.4,19.79,24.96,25.89,53.16,47.19,87.41,59.36,5.53,1.97,11.66,3.01,17.53,3.1,14,.23,22.98-7.61,24.94-21.4,2.46-17.31,4.59-34.66,6.79-51.76,.17-1.31,1.95-1.58,2.5-.38,4.55,9.83,9.06,19.88,14.01,29.7,11.06,21.96,21.63,28.42,45.62,23.74,19.87-3.88,39.35-10.27,58.6-16.75,15.42-5.19,23.3-17.58,28.81-32.71,7.06-19.41,16.37-37.98,24.26-57.11" />
  <path class="b"
    d="M379.39,114.37c-3.46-26.13-27.45-45.75-53.76-42.81-25.52,2.85-50.87,7.36-76.19,11.72-6.53,1.12-12.68,4.4-21.11,7.45,18.35-1.99,34.33-4.4,50.4-5.26,16.2-.87,32.48-.19,48.82,.93-60.68,27.31-110.76,64.89-137.1,128.4,1.99-13.44,4.12-26.87,5.95-40.33,1.99-14.63,4.67-29.25,5.32-43.96,.98-22.26-10.5-38.16-35.07-47-21.29-7.65-43.38-13.07-65.15-19.39-23.05-6.69-46.24-12.92-69.13-20.12-7.46-2.34-14.57-6.48-21.09-10.9-8.06-5.46-7.78-13.13,1.14-16.9,9.29-3.92,19.45-6.88,29.45-7.75,25.36-2.2,50.84-2.92,76.27-4.38,16.44-.94,32.92-1.69,49.3-3.29,32.08-3.12,62.43,3.29,91.87,15.46,12.18,5.03,24.29,10.23,36.16,16.28-16.74-2.96-33.48-5.94-50.22-8.89-29.66-5.21-59.4-9.86-89.66-8.49-23.65,1.08-46.35,6-67.03,18.32,44.83,35.3,125.95,54.35,183.67,30.46-7.36-4.09-13.01-8.55-19.43-10.56-18-5.63-36.32-10.23-54.5-15.26-3.76-1.04-7.5-2.2-11.12-4.18,14.69,.77,29.38,1.52,44.07,2.3,23.76,1.26,47.51,2.89,71.28,3.71,21.65,.75,42.49,4.26,60.3,17.31,21.4,15.67,25.49,34.79,16.59,57.11Z" />
  <path class="b"
    d="M58.88,58.72c-2.64,24.67-5.19,48.56-7.74,72.45l-2.69,.52c-4.23-16.83-9.27-33.51-12.42-50.54-2.18-11.81-2.63-24.13-2.26-36.17,.32-10.34,2.05-11.05,12.05-10.02,41.76,4.29,76.71,22.15,105.05,53.05,.21,.23,.33,.56,.98,1.72-15.89-5.3-31.08-10.36-46.27-15.43-15.37-5.12-30.73-10.25-46.71-15.58Z" />
  <path class="b"
    d="M245.95,250.42c30.68-32.03,60.71-63.38,90.74-94.72-7.31,24.32-17.3,47.06-34.32,65.86-14.78,16.32-32.66,27.26-56.42,28.86Z" />
  <path class="b" d="M253.64,201.98c31.17-33.19,62.34-66.38,93.5-99.56-22.44,41.29-53.43,74.66-93.5,99.56Z" />
</svg>